<?xml version="1.0" encoding="UTF-8"?>
<svg version="1.1" xmlns="http://www.w3.org/2000/svg" width="2452" height="576">
<path d="M0 0 C0.59039062 0.5259375 1.18078125 1.051875 1.7890625 1.59375 C14.55875004 13.45563984 22.65735645 29.7033587 31.10791016 44.66748047 C34.02523242 49.80573195 37.01229804 54.90246094 40 60 C48.02471565 73.72934505 55.9585928 87.51079739 63.89550781 101.29101562 C71.14033048 113.8676392 78.4073281 126.43036957 85.73071289 138.96142578 C90.65051282 147.38569339 95.52522138 155.83553896 100.39453125 164.2890625 C104.57349158 171.53951541 108.77747989 178.77483863 113 186 C121.02281678 199.73046817 128.95858328 213.51078086 136.89550781 227.29101562 C144.14033048 239.8676392 151.4073281 252.43036957 158.73071289 264.96142578 C163.64835882 273.38200505 168.52127108 281.82795898 173.38793945 290.27807617 C177.04741553 296.62791056 180.72412963 302.96717365 184.42333984 309.29394531 C186.16756259 312.27838623 187.90627612 315.26598662 189.64453125 318.25390625 C191.8280473 322.0045572 194.03537946 325.73947638 196.26171875 329.46484375 C215.51083155 361.94492852 223.89552755 397.76869932 214.47998047 435.05957031 C205.09988624 470.11547206 183.1913938 499.10977693 152.05981445 517.66479492 C132.93978269 528.65162652 111.62820712 534.13540887 89.60385132 534.15821838 C88.58023613 534.16315636 87.55662093 534.16809434 86.5019871 534.17318195 C83.07993958 534.1885038 79.6579108 534.19690612 76.23583984 534.20532227 C73.77277465 534.21491145 71.30971107 534.22492213 68.84664917 534.23532104 C62.82973131 534.2595974 56.81281378 534.27935743 50.79587428 534.29707379 C43.67902851 534.31823668 36.5622049 534.3446611 29.44537766 534.37124526 C16.60926775 534.4190197 3.7731464 534.46216383 -9.06298828 534.50268555 C-21.25505823 534.5411791 -33.4471128 534.58259351 -45.63916016 534.62768555 C-47.12785729 534.63318052 -48.61655442 534.63867484 -50.10525155 534.6441685 C-50.84114176 534.64688496 -51.57703196 534.64960143 -52.33522187 534.65240022 C-53.43798324 534.65647077 -53.43798324 534.65647077 -54.56302261 534.66062355 C-55.2973216 534.66333495 -56.03162059 534.66604635 -56.78817107 534.66883991 C-88.94897322 534.78743288 -121.10979821 534.8838022 -153.270722 534.96253143 C-163.02786249 534.98644095 -172.78498609 535.0139158 -182.542109 535.04412999 C-194.95349671 535.08252287 -207.36487478 535.11363494 -219.77630985 535.13298529 C-225.74067714 535.14238948 -231.70499248 535.15484273 -237.6693306 535.1760273 C-243.14289134 535.1953087 -248.61638424 535.20490318 -254.08997774 535.20704579 C-256.05876791 535.20941996 -258.02755784 535.21515016 -259.99632597 535.22476268 C-275.27098012 535.29623202 -290.81652882 534.97636049 -305.625 530.8125 C-306.79518677 530.49212769 -306.79518677 530.49212769 -307.98901367 530.1652832 C-325.16660705 525.24718811 -341.52503291 516.73769861 -355 505 C-355.83144531 504.28972656 -356.66289062 503.57945312 -357.51953125 502.84765625 C-381.68367733 481.72722749 -399.59494775 450.45313618 -402 418 C-403.43025612 388.57258964 -399.14948102 363.87287768 -385 338 C-384.50467773 337.0939502 -384.00935547 336.18790039 -383.49902344 335.25439453 C-376.65565609 322.80241462 -369.5792794 310.48851407 -362.39208984 298.23242188 C-357.87213657 290.51977332 -353.42460852 282.76752528 -349 275 C-344.04650499 266.30581741 -339.05612207 257.63507753 -334 249 C-328.99245865 240.44455931 -324.03845089 231.85975664 -319.125 223.25 C-318.79211975 222.6667395 -318.4592395 222.083479 -318.11627197 221.48254395 C-315.74261615 217.32258771 -313.371073 213.16142877 -311 209 C-308.29310624 204.24917808 -305.58529654 199.49888166 -302.875 194.75 C-302.37543793 193.87462585 -302.37543793 193.87462585 -301.86578369 192.98156738 C-296.72647333 183.98021232 -291.52288709 175.0178681 -286.28637695 166.07275391 C-281.48564601 157.86056671 -276.75850731 149.60722821 -272.046875 141.34375 C-267.22207465 132.88179246 -262.37431361 124.43357068 -257.5 116 C-252.307595 107.01459064 -247.14333816 98.01354666 -242 89 C-236.22363231 78.87812562 -230.42632985 68.76862972 -224.58959961 58.68139648 C-221.71518741 53.71318753 -218.84772202 48.74158188 -216.01335144 43.75042725 C-215.01295607 41.9895225 -214.00991316 40.23015172 -213.00610352 38.47119141 C-211.75659998 36.27981238 -210.5118892 34.08568985 -209.27319336 31.88818359 C-202.9962732 20.9073206 -195.69484972 11.1755406 -187 2 C-185.73349609 0.63681641 -185.73349609 0.63681641 -184.44140625 -0.75390625 C-162.88873506 -23.24501015 -131.65210436 -36.13425259 -100.71875 -37.93359375 C-61.69390439 -38.63046599 -28.54333245 -26.8407477 0 0 Z " fill="#371D1D" transform="translate(402,39)"/>
<path d="M0 0 C0.59039062 0.5259375 1.18078125 1.051875 1.7890625 1.59375 C14.55875004 13.45563984 22.65735645 29.7033587 31.10791016 44.66748047 C34.02523242 49.80573195 37.01229804 54.90246094 40 60 C48.02471565 73.72934505 55.9585928 87.51079739 63.89550781 101.29101562 C71.14033048 113.8676392 78.4073281 126.43036957 85.73071289 138.96142578 C90.65051282 147.38569339 95.52522138 155.83553896 100.39453125 164.2890625 C104.57349158 171.53951541 108.77747989 178.77483863 113 186 C121.02281678 199.73046817 128.95858328 213.51078086 136.89550781 227.29101562 C144.14033048 239.8676392 151.4073281 252.43036957 158.73071289 264.96142578 C163.64835882 273.38200505 168.52127108 281.82795898 173.38793945 290.27807617 C177.04741553 296.62791056 180.72412963 302.96717365 184.42333984 309.29394531 C186.16756259 312.27838623 187.90627612 315.26598662 189.64453125 318.25390625 C191.8280473 322.0045572 194.03537946 325.73947638 196.26171875 329.46484375 C215.51083155 361.94492852 223.89552755 397.76869932 214.47998047 435.05957031 C205.09988624 470.11547206 183.1913938 499.10977693 152.05981445 517.66479492 C132.93978269 528.65162652 111.62820712 534.13540887 89.60385132 534.15821838 C88.58023613 534.16315636 87.55662093 534.16809434 86.5019871 534.17318195 C83.07993958 534.1885038 79.6579108 534.19690612 76.23583984 534.20532227 C73.77277465 534.21491145 71.30971107 534.22492213 68.84664917 534.23532104 C62.82973131 534.2595974 56.81281378 534.27935743 50.79587428 534.29707379 C43.67902851 534.31823668 36.5622049 534.3446611 29.44537766 534.37124526 C16.60926775 534.4190197 3.7731464 534.46216383 -9.06298828 534.50268555 C-21.25505823 534.5411791 -33.4471128 534.58259351 -45.63916016 534.62768555 C-47.12785729 534.63318052 -48.61655442 534.63867484 -50.10525155 534.6441685 C-50.84114176 534.64688496 -51.57703196 534.64960143 -52.33522187 534.65240022 C-53.43798324 534.65647077 -53.43798324 534.65647077 -54.56302261 534.66062355 C-55.2973216 534.66333495 -56.03162059 534.66604635 -56.78817107 534.66883991 C-88.94897322 534.78743288 -121.10979821 534.8838022 -153.270722 534.96253143 C-163.02786249 534.98644095 -172.78498609 535.0139158 -182.542109 535.04412999 C-194.95349671 535.08252287 -207.36487478 535.11363494 -219.77630985 535.13298529 C-225.74067714 535.14238948 -231.70499248 535.15484273 -237.6693306 535.1760273 C-243.14289134 535.1953087 -248.61638424 535.20490318 -254.08997774 535.20704579 C-256.05876791 535.20941996 -258.02755784 535.21515016 -259.99632597 535.22476268 C-275.27098012 535.29623202 -290.81652882 534.97636049 -305.625 530.8125 C-306.79518677 530.49212769 -306.79518677 530.49212769 -307.98901367 530.1652832 C-325.16660705 525.24718811 -341.52503291 516.73769861 -355 505 C-355.83144531 504.28972656 -356.66289062 503.57945312 -357.51953125 502.84765625 C-381.68367733 481.72722749 -399.59494775 450.45313618 -402 418 C-403.43025612 388.57258964 -399.14948102 363.87287768 -385 338 C-384.50467773 337.0939502 -384.00935547 336.18790039 -383.49902344 335.25439453 C-376.65565609 322.80241462 -369.5792794 310.48851407 -362.39208984 298.23242188 C-357.87213657 290.51977332 -353.42460852 282.76752528 -349 275 C-344.04650499 266.30581741 -339.05612207 257.63507753 -334 249 C-328.99245865 240.44455931 -324.03845089 231.85975664 -319.125 223.25 C-318.79211975 222.6667395 -318.4592395 222.083479 -318.11627197 221.48254395 C-315.74261615 217.32258771 -313.371073 213.16142877 -311 209 C-308.29310624 204.24917808 -305.58529654 199.49888166 -302.875 194.75 C-302.37543793 193.87462585 -302.37543793 193.87462585 -301.86578369 192.98156738 C-296.72647333 183.98021232 -291.52288709 175.0178681 -286.28637695 166.07275391 C-281.48564601 157.86056671 -276.75850731 149.60722821 -272.046875 141.34375 C-267.22207465 132.88179246 -262.37431361 124.43357068 -257.5 116 C-252.307595 107.01459064 -247.14333816 98.01354666 -242 89 C-236.22363231 78.87812562 -230.42632985 68.76862972 -224.58959961 58.68139648 C-221.71518741 53.71318753 -218.84772202 48.74158188 -216.01335144 43.75042725 C-215.01295607 41.9895225 -214.00991316 40.23015172 -213.00610352 38.47119141 C-211.75659998 36.27981238 -210.5118892 34.08568985 -209.27319336 31.88818359 C-202.9962732 20.9073206 -195.69484972 11.1755406 -187 2 C-185.73349609 0.63681641 -185.73349609 0.63681641 -184.44140625 -0.75390625 C-162.88873506 -23.24501015 -131.65210436 -36.13425259 -100.71875 -37.93359375 C-61.69390439 -38.63046599 -28.54333245 -26.8407477 0 0 Z M-216 136 C-216.81855469 136.62519531 -217.63710937 137.25039062 -218.48046875 137.89453125 C-225.32065189 143.23400648 -231.69906511 149.04473102 -238 155 C-238.85722656 155.80308594 -239.71445313 156.60617188 -240.59765625 157.43359375 C-247.47398677 164.07017899 -253.31633568 171.34310691 -259 179 C-259.40105957 179.54027832 -259.80211914 180.08055664 -260.21533203 180.63720703 C-266.59454199 189.3293156 -271.9937117 198.46575878 -277 208 C-277.37656738 208.71365723 -277.75313477 209.42731445 -278.14111328 210.16259766 C-288.57589458 230.23496613 -294.85539818 251.63656591 -298 274 C-298.1023999 274.65540771 -298.2047998 275.31081543 -298.31030273 275.98608398 C-299.3376208 283.47758942 -299.18605597 291.0615239 -299.18530273 298.6081543 C-299.18747321 301.0325724 -299.20563266 303.45652236 -299.22460938 305.88085938 C-299.26091468 316.09650841 -298.48211768 325.891455 -297 336 C-296.74880895 338.06235528 -296.49859766 340.1248305 -296.25 342.1875 C-289.84595849 381.63057386 -268.35132741 418.43992945 -241 447 C-240.52836426 447.49886719 -240.05672852 447.99773437 -239.57080078 448.51171875 C-231.98080569 456.51038612 -223.84541289 463.42677818 -215 470 C-214.17113281 470.62390625 -213.34226562 471.2478125 -212.48828125 471.890625 C-189.2597163 488.76978595 -162.83993745 499.56388543 -135 506 C-133.69675781 506.30744141 -133.69675781 506.30744141 -132.3671875 506.62109375 C-129.91899637 507.15637622 -127.47307206 507.59445963 -125 508 C-123.92363281 508.185625 -122.84726562 508.37125 -121.73828125 508.5625 C-98.27161925 511.97928395 -74.13779016 510.91550544 -51 506 C-49.55898926 505.69521729 -49.55898926 505.69521729 -48.08886719 505.38427734 C-32.20806311 501.94891508 -17.5600094 497.23616956 -3 490 C-2.25266602 489.63100586 -1.50533203 489.26201172 -0.73535156 488.88183594 C20.24012652 478.44198612 37.97074073 465.02465549 55 449 C55.65871094 448.38382812 56.31742187 447.76765625 56.99609375 447.1328125 C62.14614491 442.16116957 66.59149531 436.62877879 71 431 C71.42297363 430.46407227 71.84594727 429.92814453 72.28173828 429.37597656 C84.57685451 413.67290048 93.99164996 396.46793923 101.24072266 377.91650391 C101.86074047 376.35150717 102.52392707 374.80367141 103.19921875 373.26171875 C112.68864035 351.5448211 115.23424788 326.07141571 115.125 302.625 C115.12016602 301.52502686 115.11533203 300.42505371 115.11035156 299.29174805 C114.74231629 249.49289498 96.41377284 200.37833861 62 164 C60.78553982 162.60949412 59.5769229 161.21385701 58.375 159.8125 C31.85899547 129.54308843 -7.05192854 108.77703019 -46 100 C-47.21945312 99.71125 -48.43890625 99.4225 -49.6953125 99.125 C-106.08743202 86.23537268 -170.39327526 100.7741686 -216 136 Z " fill="#F3CC1E" transform="translate(402,39)"/>
<path d="M0 0 C4.46296036 -0.0186634 8.92589949 -0.032497 13.38889194 -0.04053724 C14.79124209 -0.04351646 16.19359041 -0.0476457 17.5959332 -0.05307925 C61.21626393 -0.21412507 104.93989341 8.34006568 139.82214832 36.00934362 C140.36774403 36.43682898 140.91333973 36.86431433 141.47546864 37.30475378 C174.76413041 63.62171281 193.68068268 102.50019971 198.66060352 144.33789587 C199.89097236 155.6024417 200.16159839 166.78803071 200.13782215 178.11432409 C200.13466537 181.24244738 200.1582229 184.36961758 200.18347645 187.49762487 C200.33114388 234.49249622 186.98609537 278.75436195 153.86121082 312.99371862 C112.76659625 354.27285039 57.60059573 361.26253853 2.16171217 361.44265246 C-0.32063598 361.45083424 -2.80296919 361.46101462 -5.28530788 361.47166777 C-13.08284346 361.50416661 -20.88034074 361.52816494 -28.67793453 361.54048163 C-37.62847948 361.5548157 -46.57824677 361.59903491 -55.52853382 361.66798311 C-62.49466067 361.71977675 -69.46056549 361.74465378 -76.42688191 361.74930376 C-80.569812 361.75269063 -84.7119442 361.76738117 -88.85466671 361.81058455 C-92.73765651 361.85040046 -96.61929171 361.85671459 -100.50242519 361.83768415 C-101.92140117 361.83642176 -103.34044781 361.84702111 -104.7592268 361.87069845 C-116.77041907 362.05966102 -116.77041907 362.05966102 -122.02236462 357.64519262 C-126.65207663 352.95777976 -126.33747915 348.27180947 -126.3673048 341.9905448 C-126.37978724 340.57928761 -126.37978724 340.57928761 -126.39252186 339.13952017 C-126.41949057 335.94380306 -126.43930851 332.74808147 -126.45910168 329.55231237 C-126.47686916 327.22899103 -126.49501799 324.90567258 -126.51351452 322.58235693 C-126.55817979 316.82205781 -126.59803533 311.06173807 -126.63620627 305.30139261 C-126.66796486 300.55358748 -126.70304216 295.80581574 -126.74016857 291.05804968 C-127.01420614 255.99760001 -127.20393902 220.93732403 -127.32437778 185.87600809 C-127.34960455 178.58757316 -127.37738944 171.2991514 -127.40679455 164.01073217 C-127.41093089 162.98206461 -127.41506724 161.95339704 -127.41932893 160.89355773 C-127.43606149 156.7424656 -127.45285473 152.59137377 -127.4699645 148.44028318 C-127.52087542 136.06214703 -127.56209542 123.68406476 -127.58778179 111.30584973 C-127.60481736 103.43938657 -127.63245251 95.5730043 -127.66802609 87.70660335 C-127.68837246 83.11614796 -127.70364555 78.52581276 -127.70589352 73.93530989 C-127.70803172 69.69134641 -127.72392622 65.44765781 -127.7503891 61.20377839 C-127.75756023 59.66489909 -127.75973809 58.12598641 -127.75632668 56.58709419 C-127.73543363 45.40507827 -128.14648568 34.57204681 -136.17785168 26.00934362 C-137.58551642 24.87310006 -139.00264427 23.74850398 -140.42785168 22.63434362 C-143.49195723 20.06258017 -144.77753621 18.37356318 -145.36535168 14.38434362 C-145.49024322 9.4885951 -143.80116496 6.90320912 -140.67785168 3.25934362 C-137.69445231 0.77317749 -134.65583569 0.87648157 -130.95199108 0.85112524 C-129.86806072 0.84133642 -128.78413036 0.8315476 -127.66735363 0.82146215 C-126.47698498 0.81570669 -125.28661633 0.80995123 -124.0601759 0.80402136 C-122.80576702 0.79412176 -121.55135815 0.78422216 -120.25893688 0.77402258 C-116.80661619 0.74692268 -113.35428191 0.72591657 -109.90191317 0.70602059 C-106.25779471 0.68404338 -102.61371648 0.65667939 -98.96963024 0.62996435 C-92.81753912 0.5856241 -86.66543281 0.54490074 -80.5133009 0.50665808 C-72.72451559 0.45823152 -64.93577804 0.40445888 -57.14704227 0.34868288 C-50.35800368 0.3000703 -43.56895057 0.25360774 -36.7798934 0.20767093 C-35.34778027 0.19795791 -33.91566757 0.18818277 -32.48355532 0.17834115 C-21.65575838 0.10398288 -10.82795471 0.04645511 0 0 Z M-35.17785168 91.00934362 C-35.92530652 94.34383059 -35.92530652 94.34383059 -35.79931164 98.17632055 C-35.80570046 98.89899919 -35.81208928 99.62167783 -35.8186717 100.36625582 C-35.83393714 102.78878214 -35.81345214 105.20967691 -35.79308605 107.63214636 C-35.79658684 109.36844948 -35.80224495 111.10474941 -35.80990124 112.84103918 C-35.82416605 117.5581422 -35.80707054 122.27466347 -35.78361607 126.9917109 C-35.7635281 131.92613968 -35.76938561 136.86054381 -35.77172375 141.79500341 C-35.77167015 150.08310063 -35.75189812 158.37097008 -35.71984386 166.65900183 C-35.68296204 176.24185286 -35.67416637 185.82440532 -35.68114138 195.40731806 C-35.68744666 204.62308516 -35.67669081 213.83874985 -35.65717602 223.05449629 C-35.64900007 226.97743772 -35.64629284 230.90032681 -35.64786816 234.82327604 C-35.64874709 239.44361131 -35.6345286 244.06366283 -35.60864162 248.68392324 C-35.6014789 250.37983528 -35.59939672 252.07577751 -35.60275936 253.77170134 C-35.60647372 256.08656981 -35.59172892 258.40061006 -35.57226086 260.71538305 C-35.56853214 262.01083768 -35.56480343 263.3062923 -35.56096172 264.64100313 C-35.11747563 268.54017562 -33.97195375 271.21524155 -31.17785168 274.00934362 C-29.28460035 274.11912152 -27.38723321 274.15845835 -25.49083996 274.17047644 C-24.27091351 274.18008398 -23.05098705 274.18969152 -21.79409313 274.19959021 C-20.44545206 274.20444645 -19.09680879 274.20872323 -17.74816418 274.21246862 C-17.06671211 274.215296 -16.38526005 274.21812338 -15.68315792 274.22103643 C-12.05622243 274.23607948 -8.42932702 274.24526838 -4.8023634 274.249578 C-1.83478728 274.25391797 1.13249075 274.26762442 4.09998035 274.29059362 C32.4854266 274.50604293 62.39686893 274.5397534 84.57214832 254.00934362 C102.34984866 235.2568199 104.20566579 209.27828454 104.08289051 184.68073034 C104.07218437 182.1428882 104.0828551 179.60575814 104.09558582 177.06793737 C104.10354924 168.60527234 103.80514441 160.23599493 102.94714832 151.81403112 C102.8340633 150.68446493 102.8340633 150.68446493 102.71869373 149.53207922 C100.52605526 130.13302721 92.65269383 113.98839335 77.63464832 101.25934362 C60.01275448 88.346749 36.83512423 86.89638387 15.79871082 86.77106237 C14.49437092 86.76299063 13.19003101 86.75491888 11.84616566 86.74660254 C9.10818086 86.73171861 6.37022068 86.72180689 3.63220692 86.71417761 C0.13184327 86.70302278 -3.3679005 86.66846062 -6.86804295 86.62900591 C-10.22910009 86.59659227 -13.59008787 86.5920731 -16.95128918 86.58356237 C-18.20340191 86.56605429 -19.45551464 86.5485462 -20.74557018 86.53050756 C-22.49361446 86.53489592 -22.49361446 86.53489592 -24.27697277 86.53937292 C-25.29858501 86.53350668 -26.32019726 86.52764044 -27.37276745 86.52159643 C-31.06572041 87.16372597 -32.561326 88.33311683 -35.17785168 91.00934362 Z " fill="#F4CD1E" transform="translate(839.1778516769409,102.99065637588501)"/>
<path d="M0 0 C0.96437988 0.30550781 0.96437988 0.30550781 1.94824219 0.6171875 C13.15673732 4.31342406 25.76753919 10.37204607 34 19 C33.99097656 18.05898437 33.98195313 17.11796875 33.97265625 16.1484375 C34.00230469 14.90320313 34.03195313 13.65796875 34.0625 12.375 C34.07990234 10.53035156 34.07990234 10.53035156 34.09765625 8.6484375 C35.14253223 4.42370086 36.15241386 2.93770784 39.46888733 0.25631714 C45.18636725 -2.58155259 52.03779805 -1.80693308 58.29296875 -1.7265625 C59.88763934 -1.72552407 61.48231252 -1.72656421 63.07698059 -1.72958374 C66.40840191 -1.72940488 69.73884924 -1.70866469 73.07006836 -1.67236328 C77.3375439 -1.62687672 81.60360525 -1.62592577 85.87125683 -1.63939857 C89.15961765 -1.64608236 92.44765647 -1.63281256 95.73595619 -1.61314011 C97.30959704 -1.60545119 98.88327373 -1.60313345 100.45693016 -1.6063118 C102.65451722 -1.60705432 104.85029291 -1.5817929 107.04760742 -1.54931641 C108.921222 -1.53549423 108.921222 -1.53549423 110.83268738 -1.52139282 C114.55767194 -0.90819784 115.73211279 0.04350363 118 3 C119.01659893 6.14436413 118.88353083 8.8266082 118 12 C116.19300543 14.29943189 114.28457884 16.10633572 112.04296875 17.98046875 C108.6295999 21.35467849 107.13708055 24.69346806 106.63644314 29.46510601 C106.64180615 30.74753091 106.64716917 32.02995581 106.6526947 33.35124207 C106.65154256 34.06983518 106.65039042 34.7884283 106.64920336 35.52879697 C106.64894617 37.92595129 106.67009187 40.32242797 106.69116211 42.71948242 C106.69528493 44.44320922 106.69805265 46.16693971 106.6995697 47.89067078 C106.70565901 51.60004084 106.72116407 55.30920985 106.74394035 59.01851463 C106.77983293 64.9008708 106.79373459 70.78315548 106.80458069 76.66560364 C106.82871085 88.11182358 106.87534713 99.55789922 106.92417145 111.00403595 C106.98496994 125.52547936 107.03488688 140.04693683 107.06616598 154.56847459 C107.07943988 160.39722838 107.10318801 166.2258118 107.1355685 172.05448949 C107.15389215 175.71007001 107.16363505 179.36564059 107.17133522 183.0212574 C107.17660174 184.69519436 107.18530525 186.36912532 107.19803619 188.04302216 C107.45190287 222.37131455 100.49842784 251.70227598 76 277 C55.26253088 297.96217853 29.5947049 312.2946467 0 316 C-0.80308594 316.10957031 -1.60617188 316.21914063 -2.43359375 316.33203125 C-35.92226318 320.15493872 -78.57708253 315.21547252 -106.125 294.3125 C-109.68054962 291.47978189 -111.69667137 289.31442404 -112.75 284.75 C-113.09037507 279.64437394 -112.67136144 275.99862802 -109.36914062 272.04980469 C-107.26283626 269.95891231 -105.09442315 267.97030422 -102.875 266 C-102.14023438 265.32710938 -101.40546875 264.65421875 -100.6484375 263.9609375 C-96.39959712 260.08611476 -92.07559208 256.29759935 -87.73095703 252.53076172 C-86.61699474 251.54563568 -85.52437937 250.53554205 -84.46044922 249.49658203 C-80.67992059 245.9460956 -77.09398848 244.87412271 -72 245 C-69.25804734 245.75471021 -66.83825239 246.95763724 -64.3125 248.25 C-57.34167626 251.55390124 -50.6394922 253.70253189 -43 255 C-41.8553125 255.19529297 -41.8553125 255.19529297 -40.6875 255.39453125 C-22.30606625 257.92873627 -1.40399087 256.1328169 14.375 245.75 C26.56000333 236.46618794 31.51608964 225.72344719 34.6171875 210.96875 C35.22516549 207.9505685 35.22516549 207.9505685 34 205 C33.51273438 205.4125 33.02546875 205.825 32.5234375 206.25 C14.24142633 221.1415291 -7.17073802 228.43471034 -30.6875 228.3125 C-31.82944824 228.30686035 -32.97139648 228.3012207 -34.14794922 228.29541016 C-58.95443735 227.94078096 -81.32075303 219.33334469 -100 203 C-100.95519531 202.18917969 -101.91039063 201.37835938 -102.89453125 200.54296875 C-124.78205718 181.57425077 -138.91094892 154.86056296 -142 126 C-143.58578429 89.02848297 -135.73023213 58.80351571 -110.6875 30.875 C-82.82168596 0.74069795 -39.64893672 -12.72536453 0 0 Z M-57 75 C-66.90184649 86.77778225 -71.54858067 100.67603978 -70.875 116 C-69.5225624 130.11509586 -63.46458187 143.28962223 -53 153 C-39.48574447 163.79350475 -26.35437596 168.01758068 -9 167 C6.06227287 164.68412996 18.3960473 157.17646741 27.8125 145.25 C37.51741955 131.69746633 39.15608438 118.20132769 38 102 C36.43748168 92.80373256 32.41800653 85.49325214 27 78 C25.9171875 76.453125 25.9171875 76.453125 24.8125 74.875 C18.58791189 67.80814089 9.92235301 61.97960497 1 59 C0.01386719 58.66548828 0.01386719 58.66548828 -0.9921875 58.32421875 C-21.35233557 52.67715881 -42.82517648 59.81620467 -57 75 Z " fill="#F4CD1E" transform="translate(2318,234)"/>
<path d="M0 0 C0.7437236 -0.00525696 1.4874472 -0.01051392 2.25370789 -0.01593018 C4.70255782 -0.02909188 7.15075327 -0.02040601 9.59960938 -0.01025391 C11.30684534 -0.01227575 13.01408046 -0.01518811 14.72131348 -0.01895142 C18.29557536 -0.02336957 21.869612 -0.01696017 25.44384766 -0.00292969 C30.02044861 0.01416199 34.59652173 0.00431807 39.17310333 -0.01364708 C42.69732627 -0.02449871 46.22142451 -0.02103226 49.74565125 -0.0132637 C51.43291792 -0.01126551 53.12019599 -0.01370759 54.80744934 -0.02070236 C57.16750994 -0.02833968 59.52672124 -0.01668148 61.88671875 0 C62.58089401 -0.00607269 63.27506927 -0.01214539 63.99028015 -0.0184021 C69.71243087 0.05635247 72.57587307 1.68511482 76.71600342 5.46073914 C79.21058411 9.68844125 79.05852768 13.39667026 79.08105469 18.22729492 C79.10114594 19.21313568 79.12123718 20.19897644 79.14193726 21.21469116 C79.20361651 24.4665091 79.2376734 27.71799768 79.27148438 30.97021484 C79.3089067 33.22754248 79.34805347 35.48484213 79.38885498 37.74211121 C79.49152164 43.67832947 79.57075922 49.61463846 79.6451416 55.55126953 C79.72520651 61.61106834 79.82739794 67.67048941 79.92773438 73.72998047 C80.12128088 85.61578286 80.29008087 97.50179849 80.44335938 109.38818359 C81.10142578 108.71053955 81.75949219 108.03289551 82.4375 107.3347168 C83.75524414 105.99413208 83.75524414 105.99413208 85.09960938 104.62646484 C85.96392578 103.7425708 86.82824219 102.85867676 87.71875 101.94799805 C106.57453989 84.23267932 131.58626917 80.74137857 156.29101562 81.07177734 C181.08829804 81.84740233 203.747121 93.78820165 220.82617188 111.52099609 C234.1693211 126.92685438 239.00558851 144.0767847 239.1784668 164.06054688 C239.20570522 165.64202894 239.23438687 167.22348673 239.26441479 168.80491829 C239.33610734 172.87469176 239.38358349 176.94430377 239.42109251 181.01452351 C239.44247321 183.29371822 239.46814005 185.57281964 239.49533463 187.8519516 C239.61461 198.11133544 239.65869716 208.3703762 239.68164062 218.63037109 C239.68571183 220.21648292 239.6898292 221.80259462 239.69399071 223.38870621 C239.7127967 230.80709846 239.72711236 238.22548192 239.73560268 245.64389312 C239.74548889 254.12884253 239.7721999 262.61353905 239.81210357 271.09839904 C239.84222917 277.73525923 239.85706538 284.37204601 239.86038369 291.00897324 C239.86272416 294.94461592 239.87156542 298.87998007 239.89684486 302.81554794 C239.92008955 306.48833123 239.92437398 310.1606507 239.91408348 313.83348846 C239.91335278 315.81443768 239.93243339 317.79536336 239.95214844 319.7762146 C239.88867044 330.60623353 239.88867044 330.60623353 235.44335938 335.38818359 C229.33716448 339.96782976 218.47558899 338.54885209 211.24414062 338.55615234 C210.09092819 338.55948074 208.93771576 338.56280914 207.7495575 338.5662384 C205.32319536 338.57128094 202.89682635 338.57364756 200.47045898 338.57348633 C196.75753481 338.5756826 193.04490334 338.59389357 189.33203125 338.61279297 C186.96940205 338.61572547 184.60677145 338.61771123 182.24414062 338.61865234 C180.58152946 338.62943062 180.58152946 338.62943062 178.8853302 338.64042664 C177.85042953 338.63735001 176.81552887 338.63427338 175.74926758 338.63110352 C174.84296097 338.63252853 173.93665436 338.63395355 173.00288391 338.63542175 C167.32698719 338.08715654 164.10734274 335.66283085 160.44335938 331.38818359 C159.31206108 328.15394486 159.31150885 325.05869357 159.29859924 321.65278625 C159.2882515 319.89707558 159.2882515 319.89707558 159.2776947 318.105896 C159.27377464 316.18502167 159.27377464 316.18502167 159.26977539 314.2253418 C159.26346734 312.86005951 159.25670126 311.49477927 159.24951172 310.12950134 C159.23485609 307.19064576 159.22312533 304.25179804 159.21356392 301.31292152 C159.19808564 296.66000801 159.17413479 292.00716198 159.14866638 287.35429382 C159.07753798 274.12352775 159.01777286 260.89272284 158.96655273 247.66186523 C158.93818516 240.35350185 158.90276781 233.04520545 158.85989898 225.73691243 C158.83322787 221.11807545 158.81526038 216.4993142 158.80386174 211.88041556 C158.79468828 208.99662236 158.7773041 206.11292054 158.7576828 203.22918129 C158.74673363 201.26885122 158.74546168 199.30847445 158.74455261 197.34811401 C158.63825528 184.39146002 156.12345355 173.80127821 147.22460938 164.01708984 C138.87584856 156.38236779 128.07965779 152.74350166 116.84570312 153.16943359 C105.43631459 154.20833727 96.34656007 159.08722882 88.44335938 167.38818359 C80.77056287 176.95426755 80.00685806 187.58578862 80.15039062 199.44750977 C80.15616026 200.83661921 80.16054593 202.22573498 80.16366577 203.61485291 C80.17308915 206.58647175 80.19180221 209.55782938 80.21786499 212.52934837 C80.25869437 217.23254254 80.27616827 221.93565258 80.2902832 226.63899231 C80.32346487 236.61800443 80.38210568 246.59681028 80.44335938 256.57568359 C80.50951711 267.36162549 80.57120555 278.14748349 80.60361385 288.93358785 C80.61851846 293.60501383 80.64802977 298.27604592 80.68890381 302.94731367 C80.71134202 305.85498812 80.72124098 308.76260919 80.72780228 311.67035866 C80.73605961 313.65258198 80.75942352 315.63472451 80.78329468 317.61682129 C80.78465771 325.28625494 80.66619741 331.02320173 75.140625 336.79248047 C69.86612901 339.82182276 63.17285378 338.95966873 57.28710938 338.91943359 C55.89758025 338.92213155 54.50805297 338.9260165 53.11853027 338.93103027 C50.21343929 338.93691121 47.30884195 338.9284087 44.40380859 338.90966797 C40.69141086 338.88687817 36.98016999 338.90000896 33.26781464 338.92395782 C30.40060811 338.93845452 27.53367311 338.93379235 24.66645813 338.92344666 C23.2982011 338.92079 21.92991892 338.92401162 20.56169128 338.93336487 C8.57214721 338.99735109 8.57214721 338.99735109 4.68359375 336.60498047 C0.44977955 332.41546075 0.18645202 329.17958987 0.13046265 323.2805481 C0.12101195 322.56201916 0.11156125 321.84349022 0.10182416 321.10318768 C0.07258047 318.6879338 0.05750372 316.2728031 0.04248047 313.85742188 C0.02470889 312.1190194 0.00614469 310.38062487 -0.01314926 308.64223862 C-0.06324456 303.87754589 -0.1004566 299.11282773 -0.1351428 294.348001 C-0.16617883 290.29089076 -0.20446958 286.2338609 -0.24256718 282.17681181 C-0.53053785 251.2995575 -0.65823233 220.42143158 -0.75687313 189.54307842 C-0.76758283 186.19139994 -0.7785329 182.8397223 -0.78952789 179.48804474 C-0.8114707 172.76335332 -0.83267391 166.03865976 -0.85351562 159.31396484 C-0.85696661 158.20543891 -0.86041759 157.09691298 -0.86397314 155.95479536 C-0.90277969 143.37872615 -0.93564042 130.80267216 -0.95800781 118.2265625 C-0.97634351 107.95655869 -1.00516262 97.68664205 -1.04601252 87.41670239 C-1.06689585 82.05720773 -1.08251511 76.69782104 -1.08481979 71.33828354 C-1.08696285 66.37453677 -1.10279591 61.41102473 -1.12920952 56.44734955 C-1.13638387 54.63855152 -1.13851256 52.82972504 -1.13510704 51.02091599 C-1.06815175 34.31621368 -1.06815175 34.31621368 -9.55664062 20.38818359 C-10.46414063 19.58380859 -11.37164063 18.77943359 -12.30664062 17.95068359 C-15.16950414 14.69020015 -15.55664062 12.69615154 -15.55664062 8.38818359 C-12.62491063 1.22173249 -7.18787597 -0.06288003 0 0 Z " fill="#F4CD1E" transform="translate(1632.556640625,121.61181640625)"/>
<path d="M0 0 C1.06989472 0.84488593 2.13579246 1.69507958 3.1875 2.5625 C3.33445312 1.24185547 3.33445312 1.24185547 3.484375 -0.10546875 C3.63390625 -1.26691406 3.7834375 -2.42835938 3.9375 -3.625 C4.07671875 -4.77355469 4.2159375 -5.92210937 4.359375 -7.10546875 C5.28388871 -10.82532817 6.55613069 -12.69063166 9.1875 -15.4375 C11.79249057 -16.73999528 13.74211462 -16.59325568 16.65942383 -16.63037109 C17.80433792 -16.64643402 18.94925201 -16.66249695 20.12886047 -16.67904663 C25.3672205 -16.72340947 30.60549288 -16.765001 35.84399414 -16.78759766 C38.60963043 -16.80093269 41.37452808 -16.82877554 44.13989258 -16.86962891 C48.12058532 -16.92843476 52.10091895 -16.94625882 56.08203125 -16.9609375 C57.31862991 -16.98360687 58.55522858 -17.00627625 59.82929993 -17.02963257 C69.37338759 -17.00606908 69.37338759 -17.00606908 72.4440918 -13.96728516 C73.0194165 -13.13245605 73.59474121 -12.29762695 74.1875 -11.4375 C74.5175 -11.1075 74.8475 -10.7775 75.1875 -10.4375 C75.34882841 -7.72837841 75.44268215 -5.04344826 75.49511719 -2.33129883 C75.51527138 -1.45196119 75.53542557 -0.57262356 75.55619049 0.33336067 C75.62229174 3.36146491 75.67910408 6.38964814 75.734375 9.41796875 C75.76541447 11.02731828 75.76541447 11.02731828 75.79708099 12.66917992 C76.40200666 44.81215668 76.41000517 76.962496 76.4263196 109.11010373 C76.43111959 118.39381648 76.44889176 127.67738714 76.4773953 136.96105701 C76.49896775 144.24446381 76.50909514 151.5278301 76.51043582 158.81126851 C76.51147886 163.12275961 76.51729069 167.43411258 76.53525543 171.74556923 C76.55167799 175.75745299 76.55392047 179.7690929 76.54511642 183.78099823 C76.54434534 185.24798677 76.54869823 186.71498839 76.55857468 188.18194389 C76.5712636 190.18308976 76.56363679 192.18433368 76.55499268 194.1855011 C76.55645924 195.30322057 76.5579258 196.42094004 76.5594368 197.57252979 C76.13567876 200.97908677 75.23828769 202.83033644 73.1875 205.5625 C67.15654118 209.22074542 61.24945076 208.99970008 54.33984375 208.9609375 C52.64475426 208.96524277 52.64475426 208.96524277 50.91542053 208.96963501 C48.5343475 208.97167028 46.15325755 208.96617814 43.7722168 208.95361328 C40.13357104 208.93753787 36.49603352 208.95348885 32.85742188 208.97265625 C30.53906006 208.97067402 28.22069893 208.96683076 25.90234375 208.9609375 C24.81783432 208.96701019 23.73332489 208.97308289 22.61595154 208.9793396 C17.09467959 208.9280526 12.89644375 208.79642856 8.1875 205.5625 C4.71657409 200.65532889 4.52159517 195.39188477 4.1875 189.5625 C3.54167969 190.10777344 2.89585937 190.65304687 2.23046875 191.21484375 C-20.57103679 209.46228662 -47.58288063 214.71280939 -76.27832031 212.36035156 C-96.24543552 209.9758155 -114.76857572 200.63549556 -129.8125 187.5625 C-130.62074219 186.88703125 -131.42898438 186.2115625 -132.26171875 185.515625 C-154.63664925 166.26686218 -168.41394111 139.80515696 -171.8125 110.5625 C-172.09177931 105.97466971 -172.1470279 101.40803125 -172.125 96.8125 C-172.12008545 95.58893799 -172.1151709 94.36537598 -172.11010742 93.10473633 C-171.68796903 60.34463223 -158.01389853 32.39562237 -134.8125 9.5625 C-97.90153123 -24.62349792 -41.1546643 -30.77526925 0 0 Z M-87.8125 58.5625 C-90.46292047 61.73318819 -92.69985508 65.01441414 -94.8125 68.5625 C-95.21082031 69.21863281 -95.60914063 69.87476563 -96.01953125 70.55078125 C-102.70609993 82.64670887 -103.58841712 97.40415058 -100.75 110.75 C-96.65878829 124.61883234 -88.3954975 136.69830509 -75.796875 144.01953125 C-61.67125475 151.62895228 -47.47987838 154.11190655 -31.75 149.59375 C-16.74592582 144.32636226 -5.2560295 134.87373013 1.69140625 120.4375 C7.14101656 107.76832047 8.77110266 92.2517205 4.5625 78.875 C-1.590614 63.76020777 -11.69197778 52.21759429 -26.55859375 45.28125 C-48.26602485 36.24992651 -71.2518283 42.56062397 -87.8125 58.5625 Z " fill="#F4CD1E" transform="translate(1236.8125,254.4375)"/>
<path d="M0 0 C1.06989472 0.84488593 2.13579246 1.69507958 3.1875 2.5625 C3.33445312 1.24185547 3.33445312 1.24185547 3.484375 -0.10546875 C3.63390625 -1.26691406 3.7834375 -2.42835938 3.9375 -3.625 C4.07671875 -4.77355469 4.2159375 -5.92210937 4.359375 -7.10546875 C5.28388871 -10.82532817 6.55613069 -12.69063166 9.1875 -15.4375 C11.79249057 -16.73999528 13.74211462 -16.59325568 16.65942383 -16.63037109 C17.80433792 -16.64643402 18.94925201 -16.66249695 20.12886047 -16.67904663 C25.3672205 -16.72340947 30.60549288 -16.765001 35.84399414 -16.78759766 C38.60963043 -16.80093269 41.37452808 -16.82877554 44.13989258 -16.86962891 C48.12058532 -16.92843476 52.10091895 -16.94625882 56.08203125 -16.9609375 C57.31862991 -16.98360687 58.55522858 -17.00627625 59.82929993 -17.02963257 C69.37338759 -17.00606908 69.37338759 -17.00606908 72.4440918 -13.96728516 C73.0194165 -13.13245605 73.59474121 -12.29762695 74.1875 -11.4375 C74.5175 -11.1075 74.8475 -10.7775 75.1875 -10.4375 C75.34882841 -7.72837841 75.44268215 -5.04344826 75.49511719 -2.33129883 C75.51527138 -1.45196119 75.53542557 -0.57262356 75.55619049 0.33336067 C75.62229174 3.36146491 75.67910408 6.38964814 75.734375 9.41796875 C75.76541447 11.02731828 75.76541447 11.02731828 75.79708099 12.66917992 C76.40200666 44.81215668 76.41000517 76.962496 76.4263196 109.11010373 C76.43111959 118.39381648 76.44889176 127.67738714 76.4773953 136.96105701 C76.49896775 144.24446381 76.50909514 151.5278301 76.51043582 158.81126851 C76.51147886 163.12275961 76.51729069 167.43411258 76.53525543 171.74556923 C76.55167799 175.75745299 76.55392047 179.7690929 76.54511642 183.78099823 C76.54434534 185.24798677 76.54869823 186.71498839 76.55857468 188.18194389 C76.5712636 190.18308976 76.56363679 192.18433368 76.55499268 194.1855011 C76.55645924 195.30322057 76.5579258 196.42094004 76.5594368 197.57252979 C76.13567876 200.97908677 75.23828769 202.83033644 73.1875 205.5625 C67.15654118 209.22074542 61.24945076 208.99970008 54.33984375 208.9609375 C52.64475426 208.96524277 52.64475426 208.96524277 50.91542053 208.96963501 C48.5343475 208.97167028 46.15325755 208.96617814 43.7722168 208.95361328 C40.13357104 208.93753787 36.49603352 208.95348885 32.85742188 208.97265625 C30.53906006 208.97067402 28.22069893 208.96683076 25.90234375 208.9609375 C24.81783432 208.96701019 23.73332489 208.97308289 22.61595154 208.9793396 C17.09467959 208.9280526 12.89644375 208.79642856 8.1875 205.5625 C4.71657409 200.65532889 4.52159517 195.39188477 4.1875 189.5625 C3.54167969 190.10777344 2.89585937 190.65304687 2.23046875 191.21484375 C-20.57103679 209.46228662 -47.58288063 214.71280939 -76.27832031 212.36035156 C-96.24543552 209.9758155 -114.76857572 200.63549556 -129.8125 187.5625 C-130.62074219 186.88703125 -131.42898438 186.2115625 -132.26171875 185.515625 C-154.63664925 166.26686218 -168.41394111 139.80515696 -171.8125 110.5625 C-172.09177931 105.97466971 -172.1470279 101.40803125 -172.125 96.8125 C-172.12008545 95.58893799 -172.1151709 94.36537598 -172.11010742 93.10473633 C-171.68796903 60.34463223 -158.01389853 32.39562237 -134.8125 9.5625 C-97.90153123 -24.62349792 -41.1546643 -30.77526925 0 0 Z M-87.8125 58.5625 C-90.46292047 61.73318819 -92.69985508 65.01441414 -94.8125 68.5625 C-95.21082031 69.21863281 -95.60914063 69.87476563 -96.01953125 70.55078125 C-102.70609993 82.64670887 -103.58841712 97.40415058 -100.75 110.75 C-96.65878829 124.61883234 -88.3954975 136.69830509 -75.796875 144.01953125 C-61.67125475 151.62895228 -47.47987838 154.11190655 -31.75 149.59375 C-16.74592582 144.32636226 -5.2560295 134.87373013 1.69140625 120.4375 C7.14101656 107.76832047 8.77110266 92.2517205 4.5625 78.875 C-1.590614 63.76020777 -11.69197778 52.21759429 -26.55859375 45.28125 C-48.26602485 36.24992651 -71.2518283 42.56062397 -87.8125 58.5625 Z " fill="#F4CD1E" transform="translate(1511.8125,252.4375)"/>
<path d="M0 0 C1.06989472 0.84488593 2.13579246 1.69507958 3.1875 2.5625 C3.33445312 1.24185547 3.33445312 1.24185547 3.484375 -0.10546875 C3.63390625 -1.26691406 3.7834375 -2.42835938 3.9375 -3.625 C4.07671875 -4.77355469 4.2159375 -5.92210937 4.359375 -7.10546875 C5.28388871 -10.82532817 6.55613069 -12.69063166 9.1875 -15.4375 C11.79249057 -16.73999528 13.74211462 -16.59325568 16.65942383 -16.63037109 C17.80433792 -16.64643402 18.94925201 -16.66249695 20.12886047 -16.67904663 C25.3672205 -16.72340947 30.60549288 -16.765001 35.84399414 -16.78759766 C38.60963043 -16.80093269 41.37452808 -16.82877554 44.13989258 -16.86962891 C48.12058532 -16.92843476 52.10091895 -16.94625882 56.08203125 -16.9609375 C57.31862991 -16.98360687 58.55522858 -17.00627625 59.82929993 -17.02963257 C69.37338759 -17.00606908 69.37338759 -17.00606908 72.4440918 -13.96728516 C73.0194165 -13.13245605 73.59474121 -12.29762695 74.1875 -11.4375 C74.5175 -11.1075 74.8475 -10.7775 75.1875 -10.4375 C75.34882841 -7.72837841 75.44268215 -5.04344826 75.49511719 -2.33129883 C75.51527138 -1.45196119 75.53542557 -0.57262356 75.55619049 0.33336067 C75.62229174 3.36146491 75.67910408 6.38964814 75.734375 9.41796875 C75.76541447 11.02731828 75.76541447 11.02731828 75.79708099 12.66917992 C76.40200666 44.81215668 76.41000517 76.962496 76.4263196 109.11010373 C76.43111959 118.39381648 76.44889176 127.67738714 76.4773953 136.96105701 C76.49896775 144.24446381 76.50909514 151.5278301 76.51043582 158.81126851 C76.51147886 163.12275961 76.51729069 167.43411258 76.53525543 171.74556923 C76.55167799 175.75745299 76.55392047 179.7690929 76.54511642 183.78099823 C76.54434534 185.24798677 76.54869823 186.71498839 76.55857468 188.18194389 C76.5712636 190.18308976 76.56363679 192.18433368 76.55499268 194.1855011 C76.55645924 195.30322057 76.5579258 196.42094004 76.5594368 197.57252979 C76.13567876 200.97908677 75.23828769 202.83033644 73.1875 205.5625 C67.15654118 209.22074542 61.24945076 208.99970008 54.33984375 208.9609375 C52.64475426 208.96524277 52.64475426 208.96524277 50.91542053 208.96963501 C48.5343475 208.97167028 46.15325755 208.96617814 43.7722168 208.95361328 C40.13357104 208.93753787 36.49603352 208.95348885 32.85742188 208.97265625 C30.53906006 208.97067402 28.22069893 208.96683076 25.90234375 208.9609375 C24.81783432 208.96701019 23.73332489 208.97308289 22.61595154 208.9793396 C17.09467959 208.9280526 12.89644375 208.79642856 8.1875 205.5625 C4.71657409 200.65532889 4.52159517 195.39188477 4.1875 189.5625 C3.54167969 190.10777344 2.89585937 190.65304687 2.23046875 191.21484375 C-20.57103679 209.46228662 -47.58288063 214.71280939 -76.27832031 212.36035156 C-96.24543552 209.9758155 -114.76857572 200.63549556 -129.8125 187.5625 C-130.62074219 186.88703125 -131.42898438 186.2115625 -132.26171875 185.515625 C-154.63664925 166.26686218 -168.41394111 139.80515696 -171.8125 110.5625 C-172.09177931 105.97466971 -172.1470279 101.40803125 -172.125 96.8125 C-172.12008545 95.58893799 -172.1151709 94.36537598 -172.11010742 93.10473633 C-171.68796903 60.34463223 -158.01389853 32.39562237 -134.8125 9.5625 C-97.90153123 -24.62349792 -41.1546643 -30.77526925 0 0 Z M-87.8125 58.5625 C-90.46292047 61.73318819 -92.69985508 65.01441414 -94.8125 68.5625 C-95.21082031 69.21863281 -95.60914063 69.87476563 -96.01953125 70.55078125 C-102.70609993 82.64670887 -103.58841712 97.40415058 -100.75 110.75 C-96.65878829 124.61883234 -88.3954975 136.69830509 -75.796875 144.01953125 C-61.67125475 151.62895228 -47.47987838 154.11190655 -31.75 149.59375 C-16.74592582 144.32636226 -5.2560295 134.87373013 1.69140625 120.4375 C7.14101656 107.76832047 8.77110266 92.2517205 4.5625 78.875 C-1.590614 63.76020777 -11.69197778 52.21759429 -26.55859375 45.28125 C-48.26602485 36.24992651 -71.2518283 42.56062397 -87.8125 58.5625 Z " fill="#F4CD1E" transform="translate(2072.8125,250.4375)"/>
<path d="M0 0 C1.22323975 0.39614502 1.22323975 0.39614502 2.47119141 0.80029297 C48.39266416 15.97325082 84.58747631 46.75153132 106.59716797 89.80932617 C110.82322991 98.32990678 114.38664009 106.85553677 117 116 C117.28278809 116.97791504 117.28278809 116.97791504 117.57128906 117.97558594 C118.6976886 121.95814291 119.68268748 125.9563758 120.56201172 130.00048828 C120.98728674 131.94196118 121.44820123 133.87552018 121.91015625 135.80859375 C130.21693963 174.00010853 122.17873649 217.38891936 103 251 C102.65501465 251.62229492 102.3100293 252.24458984 101.95458984 252.88574219 C92.23905744 270.34438067 79.24046126 285.07599343 65 299 C64.34 298.67 63.68 298.34 63 298 C63.68964844 297.1028125 64.37929688 296.205625 65.08984375 295.28125 C78.96182104 276.980567 88.70688968 257.73534479 93 235 C93.20367187 234.113125 93.40734375 233.22625 93.6171875 232.3125 C100.71578075 198.08366681 89.10395027 159.6315187 70.54736328 130.8293457 C65.47226923 123.18947944 60.07203483 115.88302578 54 109 C53.56300781 108.50274414 53.12601562 108.00548828 52.67578125 107.49316406 C47.14521163 101.23060729 41.50643907 95.2660434 35 90 C34.01902344 89.18144531 33.03804688 88.36289062 32.02734375 87.51953125 C3.35650546 63.97677606 -39.05787831 43.24444991 -77 44 C-77.2995459 44.66902344 -77.5990918 45.33804688 -77.90771484 46.02734375 C-91.44575687 76.2584155 -105.03452503 106.46648381 -118.69610596 136.64193726 C-124.48109657 149.42033285 -130.24826245 162.20660391 -136 175 C-142.53872437 189.54386436 -149.10161656 204.07661882 -155.67861938 218.60321045 C-164.48456829 238.05434428 -173.24660872 257.52516779 -182 277 C-182.99 277 -183.98 277 -185 277 C-207.49901135 253.98867719 -217.58992193 219.85206681 -223 189 C-223.185625 187.96617187 -223.37125 186.93234375 -223.5625 185.8671875 C-225.51272624 168.62858058 -224.27844504 150.98573681 -221 134 C-220.86078125 133.26136719 -220.7215625 132.52273438 -220.578125 131.76171875 C-212.18236599 88.61684604 -185.51703825 48.3582789 -149.13769531 23.73974609 C-126.38204907 8.62079863 -100.31537797 -2.73279206 -73 -6 C-72.08347656 -6.11085937 -71.16695312 -6.22171875 -70.22265625 -6.3359375 C-46.65452344 -8.62771388 -22.61305759 -7.34066817 0 0 Z " fill="#FEFEFD" transform="translate(369,188)"/>
<path d="M0 0 C26.50493938 2.43965919 50.85078107 20.81168114 67.43847656 40.72705078 C84.70092969 62.43336278 95.76481811 87.06378812 102 114 C102.26683594 115.12019531 102.53367187 116.24039063 102.80859375 117.39453125 C105.8041928 132.82703121 105.66601538 150.94407182 101 166 C100.50693359 167.71123047 100.50693359 167.71123047 100.00390625 169.45703125 C95.30957152 184.18977036 86.20251351 195.65166574 76 207 C75.43023437 207.65355469 74.86046875 208.30710937 74.2734375 208.98046875 C50.79054199 234.32995339 12.80143741 246.94315551 -20.91796875 248.23828125 C-49.68912004 248.83768024 -77.07640665 241.20602791 -102 227 C-101.42334222 222.07301693 -99.84898218 217.99252922 -97.74609375 213.55078125 C-97.41383286 212.83353378 -97.08157196 212.11628632 -96.73924255 211.37730408 C-95.64523025 209.01925263 -94.54127476 206.66599537 -93.4375 204.3125 C-92.66536099 202.65174698 -91.89405194 200.99060785 -91.12353516 199.32910156 C-89.53311298 195.90060294 -87.93967228 192.47353231 -86.34423828 189.04736328 C-83.15135565 182.18244449 -80.00342985 175.29711518 -76.86038208 168.40927124 C-75.86852178 166.23580426 -74.8756578 164.06279818 -73.88256836 161.88989258 C-68.78610353 150.73612897 -63.7105023 139.57291789 -58.6418457 128.40649414 C-55.46258839 121.40452181 -52.27359082 114.40719805 -49.06640625 107.41796875 C-47.73152206 104.50792653 -46.39686631 101.59777972 -45.0625 98.6875 C-44.73105988 97.96468842 -44.39961975 97.24187683 -44.05813599 96.49716187 C-38.93070679 85.30685937 -33.91195313 74.07151786 -28.9375 62.8125 C-22.06712487 47.26292411 -14.91320122 31.85893922 -7.64355469 16.49267578 C-5.06352681 11.00992491 -2.52873105 5.50659148 0 0 Z " fill="#FEFEFE" transform="translate(328,277)"/>
<path d="M0 0 C0.64582031 0.350625 1.29164062 0.70125 1.95703125 1.0625 C9.28868627 5.66275413 13.39864431 13.25177304 15.53125 21.46484375 C17.14918232 30.21516107 16.15675458 38.7045228 11.55859375 46.41796875 C6.13007266 53.93728915 -1.49294484 59.87307983 -10.796875 61.484375 C-21.16908851 62.41732542 -29.41650076 61.22455885 -38 55 C-45.18293196 48.6703596 -49.27484858 41.50969265 -50.33984375 31.94921875 C-50.66819263 21.61279604 -47.83964706 12.8555779 -41 5 C-29.21930426 -5.20604829 -13.94655594 -7.61176482 0 0 Z " fill="#F4CD1E" transform="translate(1172,149)"/>
<path d="M0 0 C8.7855665 5.38055718 13.68271066 12.46773864 16.77734375 22.35546875 C18.53910912 31.93028055 16.65320587 40.57538437 11.59375 48.82421875 C6.4779307 55.89505367 0.5429762 59.98647921 -7.86328125 62.30859375 C-19.27788005 63.33543004 -28.95797147 62.47481955 -38.17578125 55.12109375 C-45.46616363 48.24309663 -48.84269968 39.47365441 -49.23828125 29.55859375 C-49.02261117 19.96127524 -45.98468088 12.21076934 -39.234375 5.32421875 C-28.43495955 -3.85617395 -12.99432961 -6.37582556 0 0 Z " fill="#F4CD1E" transform="translate(1263.86328125,146.69140625)"/>
</svg>
