<?xml version="1.0" encoding="UTF-8"?>
<svg version="1.1" xmlns="http://www.w3.org/2000/svg" width="1369" height="391">
<path d="M0 0 C0.91394531 0.41894531 1.82789063 0.83789062 2.76953125 1.26953125 C10.66642584 5.189735 16.90057819 10.71354311 23 17 C23.61367432 17.62318115 24.22734863 18.2463623 24.85961914 18.88842773 C30.70094013 25.10200725 34.87763235 32.06779732 39.0625 39.4375 C39.80356473 40.72426755 40.54560798 42.010472 41.28857422 43.29614258 C42.80343828 45.92138877 44.31235979 48.54990321 45.81591797 51.18164062 C47.8357454 54.71642207 49.87049766 58.24224648 51.91015625 61.765625 C54.99873475 67.10253068 58.0777989 72.44483088 61.15283203 77.78955078 C69.63815266 92.53736552 78.14561236 107.27144561 86.73071289 121.96142578 C91.65051282 130.38569339 96.52522138 138.83553896 101.39453125 147.2890625 C105.57349128 154.5395149 109.77740506 161.77488269 114 169 C119.49362168 178.39992152 124.94769958 187.82198566 130.37475586 197.26049805 C133.50408135 202.69731834 136.6534065 208.12055918 139.84765625 213.51953125 C155.01378867 239.16576427 165.63486415 263.64022319 157.97973633 293.93383789 C151.36971581 316.87449733 135.71509076 335.54909285 115 347 C102.39747528 353.34099289 89.72671137 355.44087254 75.72680664 355.50292969 C74.33682567 355.51927901 72.94685828 355.53681719 71.55690575 355.55542755 C67.78162113 355.60207268 64.00640316 355.63038581 60.23091769 355.65483189 C56.99428812 355.67797758 53.75779743 355.711569 50.52126008 355.74498153 C39.01435726 355.86310785 27.50731072 355.93569573 16 356 C14.17072292 356.01058185 12.34144588 356.02117145 10.51216888 356.0317688 C-12.07496378 356.16037206 -34.6619244 356.22642578 -57.24941444 356.23740387 C-59.16277695 356.23833699 -61.07613946 356.23928051 -62.98950195 356.24023438 C-63.93850195 356.24070314 -64.88750195 356.2411719 -65.86525953 356.24165487 C-73.71476826 356.24675781 -81.56419302 356.26706197 -89.41366726 356.2898953 C-97.14190294 356.3115663 -104.8701005 356.32160005 -112.5983662 356.32293582 C-117.14574192 356.32396968 -121.69298555 356.32958135 -126.24032784 356.34775543 C-130.46596464 356.36435832 -134.69137038 356.36633343 -138.91702843 356.35761642 C-140.44672397 356.35685563 -141.97643294 356.36105932 -143.50609589 356.37107468 C-169.04333206 356.52835757 -191.39558601 350.12430849 -210.1484375 331.9375 C-226.30224179 315.64322785 -234.2835616 295.2091226 -234.5 272.5 C-234.34014183 255.72738097 -230.05513221 242.61984958 -222 228 C-221.46938965 227.02627441 -220.9387793 226.05254883 -220.39208984 225.04931641 C-213.24809509 211.95563589 -205.89324572 198.99379002 -198.34130859 186.13085938 C-193.8352218 178.45372914 -189.40550355 170.73504986 -185 163 C-180.04664654 154.30573935 -175.05621243 145.63502109 -170 137 C-164.62275623 127.8149289 -159.31864035 118.58961538 -154.046875 109.34375 C-148.6130926 99.81373165 -143.14547962 90.30379248 -137.65356445 80.80712891 C-134.02988968 74.53562235 -130.43030221 68.2511834 -126.85221863 61.95361328 C-123.25498013 55.62410798 -119.63227902 49.30947248 -116 43 C-115.47390137 42.08089844 -114.94780273 41.16179688 -114.40576172 40.21484375 C-102.10040372 18.82841724 -85.71005261 1.66228572 -61.4375 -5.4375 C-40.79311921 -10.85999342 -19.25486196 -9.167731 0 0 Z " fill="#381E1E" transform="translate(234,22)"/>
<path d="M0 0 C0.91394531 0.41894531 1.82789063 0.83789062 2.76953125 1.26953125 C10.66642584 5.189735 16.90057819 10.71354311 23 17 C23.61367432 17.62318115 24.22734863 18.2463623 24.85961914 18.88842773 C30.70094013 25.10200725 34.87763235 32.06779732 39.0625 39.4375 C39.80356473 40.72426755 40.54560798 42.010472 41.28857422 43.29614258 C42.80343828 45.92138877 44.31235979 48.54990321 45.81591797 51.18164062 C47.8357454 54.71642207 49.87049766 58.24224648 51.91015625 61.765625 C54.99873475 67.10253068 58.0777989 72.44483088 61.15283203 77.78955078 C69.63815266 92.53736552 78.14561236 107.27144561 86.73071289 121.96142578 C91.65051282 130.38569339 96.52522138 138.83553896 101.39453125 147.2890625 C105.57349128 154.5395149 109.77740506 161.77488269 114 169 C119.49362168 178.39992152 124.94769958 187.82198566 130.37475586 197.26049805 C133.50408135 202.69731834 136.6534065 208.12055918 139.84765625 213.51953125 C155.01378867 239.16576427 165.63486415 263.64022319 157.97973633 293.93383789 C151.36971581 316.87449733 135.71509076 335.54909285 115 347 C102.39747528 353.34099289 89.72671137 355.44087254 75.72680664 355.50292969 C74.33682567 355.51927901 72.94685828 355.53681719 71.55690575 355.55542755 C67.78162113 355.60207268 64.00640316 355.63038581 60.23091769 355.65483189 C56.99428812 355.67797758 53.75779743 355.711569 50.52126008 355.74498153 C39.01435726 355.86310785 27.50731072 355.93569573 16 356 C14.17072292 356.01058185 12.34144588 356.02117145 10.51216888 356.0317688 C-12.07496378 356.16037206 -34.6619244 356.22642578 -57.24941444 356.23740387 C-59.16277695 356.23833699 -61.07613946 356.23928051 -62.98950195 356.24023438 C-63.93850195 356.24070314 -64.88750195 356.2411719 -65.86525953 356.24165487 C-73.71476826 356.24675781 -81.56419302 356.26706197 -89.41366726 356.2898953 C-97.14190294 356.3115663 -104.8701005 356.32160005 -112.5983662 356.32293582 C-117.14574192 356.32396968 -121.69298555 356.32958135 -126.24032784 356.34775543 C-130.46596464 356.36435832 -134.69137038 356.36633343 -138.91702843 356.35761642 C-140.44672397 356.35685563 -141.97643294 356.36105932 -143.50609589 356.37107468 C-169.04333206 356.52835757 -191.39558601 350.12430849 -210.1484375 331.9375 C-226.30224179 315.64322785 -234.2835616 295.2091226 -234.5 272.5 C-234.34014183 255.72738097 -230.05513221 242.61984958 -222 228 C-221.46938965 227.02627441 -220.9387793 226.05254883 -220.39208984 225.04931641 C-213.24809509 211.95563589 -205.89324572 198.99379002 -198.34130859 186.13085938 C-193.8352218 178.45372914 -189.40550355 170.73504986 -185 163 C-180.04664654 154.30573935 -175.05621243 145.63502109 -170 137 C-164.62275623 127.8149289 -159.31864035 118.58961538 -154.046875 109.34375 C-148.6130926 99.81373165 -143.14547962 90.30379248 -137.65356445 80.80712891 C-134.02988968 74.53562235 -130.43030221 68.2511834 -126.85221863 61.95361328 C-123.25498013 55.62410798 -119.63227902 49.30947248 -116 43 C-115.47390137 42.08089844 -114.94780273 41.16179688 -114.40576172 40.21484375 C-102.10040372 18.82841724 -85.71005261 1.66228572 -61.4375 -5.4375 C-40.79311921 -10.85999342 -19.25486196 -9.167731 0 0 Z M-136 120 C-160.55687 148.79769318 -171.24260163 183.55443529 -168.859375 221.22265625 C-165.9138635 255.96630331 -147.61250415 286.77202757 -121.9375 309.55859375 C-93.49990085 333.19356645 -58.14119527 342.97661679 -21.49658203 339.78173828 C13.12184547 335.55200127 45.15574006 317.00014219 67 290 C74.34148037 280.40849916 79.96866409 269.94855736 85 259 C85.40992188 258.11957031 85.81984375 257.23914063 86.2421875 256.33203125 C91.41806802 244.35528447 94.14771191 230.85451624 94.16796875 217.86328125 C94.17129715 217.10258835 94.17462555 216.34189545 94.17805481 215.55815125 C94.18309062 213.95552163 94.18546418 212.35288166 94.18530273 210.75024414 C94.18747831 208.33656889 94.20563962 205.92335963 94.22460938 203.50976562 C94.27028225 191.45476675 93.07916637 180.28504661 89.375 168.75 C89.11630127 167.94280518 88.85760254 167.13561035 88.59106445 166.30395508 C85.85728386 158.10422282 82.26530678 150.50662486 78 143 C77.66129883 142.40380859 77.32259766 141.80761719 76.97363281 141.19335938 C66.1149333 122.48710969 51.00325169 107.79369342 33 96 C32.16726563 95.443125 31.33453125 94.88625 30.4765625 94.3125 C-22.9350934 60.24260654 -94.30008925 75.44696901 -136 120 Z " fill="#F3CC1E" transform="translate(234,22)"/>
<path d="M0 0 C6.17725096 -0.05083705 12.3544166 -0.0872632 18.53182983 -0.11120605 C20.87349595 -0.12061348 23.21515359 -0.13251367 25.55679321 -0.14709473 C42.10742444 -0.23711914 58.88001975 -0.2716145 74.96191406 4.18701172 C75.73728516 4.39801514 76.51265625 4.60901855 77.31152344 4.82641602 C90.23706368 8.54999011 102.01565829 14.48270007 112.39941406 23.06201172 C113.63884766 24.0578125 113.63884766 24.0578125 114.90332031 25.07373047 C135.84229103 42.80140364 146.06189038 68.11244502 148.39941406 95.06201172 C148.7307109 100.64212585 148.74126385 106.22393734 148.71191406 111.81201172 C148.70868134 112.92636597 148.70868134 112.92636597 148.7053833 114.06323242 C148.56040438 145.28817241 141.06049596 171.50010022 119.21191406 194.62451172 C94.2895429 218.8214029 61.77150886 223.55601672 28.59082031 223.49560547 C26.3631118 223.50017848 24.1354047 223.50548734 21.90769958 223.51148987 C17.28305246 223.5203441 12.65857883 223.51807898 8.03393555 223.50805664 C2.10567017 223.49645996 -3.82200894 223.51697952 -9.75019741 223.54597378 C-14.33034551 223.56427871 -18.91035072 223.56405672 -23.4905262 223.55833626 C-25.67823178 223.55818296 -27.865947 223.56423398 -30.05361748 223.57662773 C-33.09496712 223.59146141 -36.13519971 223.58092401 -39.17651367 223.5637207 C-40.07670731 223.57338867 -40.97690094 223.58305664 -41.90437317 223.59301758 C-47.97174365 223.52094426 -47.97174365 223.52094426 -51.12709045 221.21815491 C-53.90827713 217.1484874 -53.74563455 213.3176022 -53.73861694 208.57991028 C-53.74143822 207.81120013 -53.7442595 207.04248999 -53.74716628 206.2504856 C-53.75552001 203.66657337 -53.7568512 201.08270394 -53.75830078 198.4987793 C-53.7629685 196.64927042 -53.768112 194.79976269 -53.7736969 192.95025635 C-53.7849839 188.96261007 -53.79341524 184.97497129 -53.79981613 180.98731422 C-53.81049082 174.67972144 -53.83073488 168.37218241 -53.85293579 162.06462097 C-53.91487589 144.12652044 -53.96885638 126.18842277 -54.00195312 108.25024414 C-54.02030585 98.34675659 -54.04925102 88.44335878 -54.08995783 78.5399372 C-54.11101868 73.29933056 -54.1264838 68.05883699 -54.12876511 62.81818581 C-54.13091461 57.88597682 -54.146815 52.95400314 -54.17315483 48.02186584 C-54.18033802 46.21433498 -54.18245355 44.40677557 -54.17905235 42.59923363 C-54.17514218 40.12555626 -54.1896616 37.65262468 -54.20858765 35.17903137 C-54.20305795 34.46899123 -54.19752825 33.7589511 -54.19183099 33.02739459 C-54.26890442 27.16447794 -55.45782329 21.48925249 -59.42480469 16.99560547 C-60.0396875 16.50189453 -60.65457031 16.00818359 -61.28808594 15.49951172 C-64.09727151 12.89268274 -64.54743099 12.34711554 -65.28808594 8.37451172 C-64.45996961 4.38449669 -63.91331297 3.40835724 -60.60058594 1.06201172 C-57.25854747 0.43219319 -53.94317595 0.45701442 -50.54980469 0.45263672 C-49.52787018 0.43596451 -48.50593567 0.4192923 -47.45303345 0.40211487 C-44.06464668 0.35235423 -40.6767719 0.33154688 -37.28808594 0.31201172 C-34.92177942 0.28549957 -32.55548669 0.25772982 -30.18920898 0.22875977 C-23.93735042 0.15892547 -17.6856212 0.1173441 -11.43347168 0.08416748 C-7.62224373 0.06213691 -3.81115444 0.03221264 0 0 Z M3.39941406 56.06201172 C2.94793278 58.10512057 2.94793278 58.10512057 3.02519226 60.50305176 C3.01817795 61.43688187 3.01116364 62.37071198 3.00393677 63.33283997 C3.01158051 64.3604393 3.01922424 65.38803864 3.02709961 66.44677734 C3.02344894 67.52650314 3.01979828 68.60622894 3.01603699 69.71867371 C3.00790444 73.30202773 3.02156435 76.88493337 3.03613281 80.46826172 C3.03665109 82.94925944 3.03613464 85.43025757 3.03462219 87.91125488 C3.03472356 93.78438315 3.0496295 99.65734573 3.07027322 105.53043413 C3.08996572 111.54818563 3.08579077 117.56579107 3.07971478 123.58356476 C3.07637949 128.70837424 3.08299658 133.83313186 3.09284401 138.95793152 C3.09670391 141.42359648 3.09784098 143.88926721 3.09625816 146.35493469 C3.09588891 149.79581778 3.10846849 153.23640698 3.12475586 156.67724609 C3.12227844 157.70484543 3.11980103 158.73244476 3.11724854 159.79118347 C3.12433334 160.72501358 3.13141815 161.65884369 3.13871765 162.62097168 C3.14077052 163.43508263 3.14282339 164.24919357 3.14493847 165.08797455 C3.22511709 167.29497988 3.22511709 167.29497988 5.39941406 169.06201172 C8.4429845 169.28755966 11.39234037 169.3902456 14.43847656 169.39794922 C15.35212982 169.40460602 16.26578308 169.41126282 17.2071228 169.41812134 C19.15238431 169.42827046 21.09768079 169.43293766 23.04296875 169.43261719 C25.96449058 169.43692339 28.88441672 169.47302802 31.80566406 169.51123047 C47.98559946 169.6092441 64.08842851 168.42093763 76.64160156 157.02685547 C87.93812947 145.29584572 88.77322387 130.30503654 88.77001953 114.80566406 C88.77436775 112.46197387 88.81071762 110.12021122 88.84863281 107.77685547 C88.95871401 93.05734328 87.16161273 77.54580321 76.73925781 66.26513672 C65.52641729 55.94625843 50.07421888 53.91494929 35.41113281 53.89404297 C34.58611771 53.89071457 33.7611026 53.88738617 32.91108704 53.88395691 C31.18251091 53.87892975 29.45392522 53.87654727 27.7253418 53.87670898 C25.07682669 53.87450332 22.42871612 53.8562516 19.78027344 53.83740234 C18.09472798 53.83447138 16.40918056 53.8324846 14.72363281 53.83154297 C13.93300949 53.82435745 13.14238617 53.81717194 12.32780457 53.80976868 C8.48515081 53.82585929 6.67335343 53.87938548 3.39941406 56.06201172 Z " fill="#F4CD1E" transform="translate(518.6005859375,62.93798828125)"/>
<path d="M0 0 C0.0825 -1.258125 0.165 -2.51625 0.25 -3.8125 C0.4367532 -6.66048634 0.6143752 -7.64758073 2.75450134 -9.60342407 C5.28540277 -11.17750473 6.58875253 -11.37917814 9.53735352 -11.38818359 C10.42830215 -11.39764008 11.31925079 -11.40709656 12.23719788 -11.4168396 C13.66859352 -11.40773056 13.66859352 -11.40773056 15.12890625 -11.3984375 C16.11495346 -11.40130768 17.10100067 -11.40417786 18.1169281 -11.40713501 C20.19897029 -11.40917452 22.28103168 -11.40365258 24.36303711 -11.39111328 C27.55430781 -11.37504126 30.74431527 -11.39097492 33.93554688 -11.41015625 C35.95833613 -11.40817413 37.98112461 -11.40433111 40.00390625 -11.3984375 C41.43833824 -11.40754654 41.43833824 -11.40754654 42.90174866 -11.4168396 C43.78954514 -11.40738312 44.67734161 -11.39792664 45.59204102 -11.38818359 C46.37273453 -11.38579681 47.15342804 -11.38341003 47.95777893 -11.38095093 C50.52949052 -10.90123013 51.40983603 -10.0404597 53 -8 C53.5625 -5.75 53.5625 -5.75 53 -3 C51.5849947 -1.05015638 50.05786109 0.69244598 48.41015625 2.44921875 C45.91674876 5.1912763 45.87393968 7.09623609 45.86869812 10.70196533 C45.86468994 11.69418091 45.86068176 12.68639648 45.85655212 13.7086792 C45.85708084 14.80158264 45.85760956 15.89448608 45.8581543 17.02050781 C45.85467987 18.16874023 45.85120544 19.31697266 45.84762573 20.5 C45.84025681 23.00234744 45.83491751 25.50470147 45.83133507 28.00705719 C45.82417662 31.97648828 45.80886237 35.94583414 45.78999329 39.91522217 C45.78365514 41.27615732 45.77732952 42.63709253 45.77101612 43.9980278 C45.76785031 44.67983785 45.7646845 45.3616479 45.76142275 46.06411886 C45.71944289 55.30412268 45.68643992 64.54408701 45.67407227 73.78417969 C45.66564505 80.01627856 45.64297584 86.24815803 45.6047166 92.48014712 C45.58509511 95.77267368 45.57474079 99.0648049 45.57755089 102.35739899 C45.59450926 128.7320578 45.59450926 128.7320578 41 140 C40.73571198 140.6804538 40.47142395 141.36090759 40.1991272 142.0619812 C32.39167351 160.4256081 14.93062866 173.58175492 -3 181 C-24.66008118 189.34789902 -52.79877797 187.15181059 -74.015625 178.390625 C-86.56865076 172.54130933 -86.56865076 172.54130933 -90 167 C-90.5 163.5625 -90.5 163.5625 -90 160 C-88.37963802 158.01374983 -86.9225437 156.64662308 -85 155 C-83.513116 153.50764951 -82.03461133 152.00692477 -80.5625 150.5 C-79.04453909 148.99709325 -77.52392593 147.49685797 -76 146 C-75.17435547 145.16275391 -75.17435547 145.16275391 -74.33203125 144.30859375 C-71.9110097 142.03036704 -70.14627743 141.02925549 -66.875 140.375 C-62.16660381 141.13441874 -58.28078354 142.81793032 -53.96484375 144.80859375 C-43.01091886 149.21036858 -27.91534196 148.19454189 -17 144 C-10.04691443 140.64704374 -5.29477232 136.00139117 -2 129 C-0.7423441 125.04124222 0.21356842 121.07702688 1 117 C0.34515625 117.44730469 -0.3096875 117.89460937 -0.984375 118.35546875 C-17.46932156 129.27558165 -33.69833484 133.1968408 -53.3125 130 C-67.77476458 126.77953696 -78.83988542 119.58085552 -89 109 C-89.67546875 108.32066406 -90.3509375 107.64132812 -91.046875 106.94140625 C-106.62156374 90.36745651 -108.79672538 70.77781984 -108.17480469 49.12451172 C-107.21484118 31.96583434 -97.98994186 16.85961641 -86 5 C-61.06313033 -17.00117999 -27.18108345 -19.63078249 0 0 Z M-57 38 C-62.5902211 44.99433766 -64.53083576 52.47193253 -64.3125 61.35546875 C-63.11034388 71.52871495 -58.02649649 80.0275666 -50.0625 86.3125 C-42.22013227 91.75776665 -34.3967302 93.83189799 -24.90625 92.59765625 C-18.0436472 91.13328772 -13.08284147 88.8303461 -8 84 C-7.37222656 83.4121875 -6.74445313 82.824375 -6.09765625 82.21875 C0.26984908 75.64931533 3.13416459 68.11048177 3.5 59 C3.0615269 48.71581267 -0.5120175 41.51832619 -7.6328125 34.1640625 C-15.12483693 27.31491806 -22.90691618 24.43414009 -33.10546875 24.69921875 C-43.25275302 25.7536599 -50.21826885 30.59395786 -57 38 Z " fill="#F4CD1E" transform="translate(1307,155)"/>
<path d="M0 0 C0.94470657 -0.01283524 1.88941315 -0.02567047 2.86274719 -0.03889465 C3.88668076 -0.04628159 4.91061432 -0.05366852 5.96557617 -0.0612793 C7.01629807 -0.06935104 8.06701996 -0.07742279 9.14958191 -0.08573914 C11.37639716 -0.09958619 13.60323369 -0.11030555 15.83007812 -0.11816406 C19.23437768 -0.13537586 22.63770602 -0.17925718 26.04174805 -0.22338867 C28.20385027 -0.2335155 30.36596076 -0.24203163 32.52807617 -0.2487793 C34.05486748 -0.27504143 34.05486748 -0.27504143 35.61250305 -0.30183411 C39.83397449 -0.28889062 42.73777797 -0.16956611 46.56591797 1.70361328 C49.14174041 5.09221959 49.33222813 8.06361228 49.44604492 12.17700195 C49.48190704 13.09956787 49.51776917 14.02213379 49.55471802 14.97265625 C49.6575552 18.2387679 49.71454683 21.50338436 49.76245117 24.77075195 C49.78323227 25.9580188 49.80401337 27.14528564 49.82542419 28.36853027 C49.89048348 32.13796548 49.94960082 35.90746666 50.00854492 39.67700195 C50.05177167 42.24211277 50.09538725 44.80721707 50.1394043 47.37231445 C50.24611983 53.64047512 50.34796496 59.90870053 50.44604492 66.17700195 C51.1120874 65.63213135 51.77812988 65.08726074 52.46435547 64.52587891 C53.34905518 63.80875732 54.23375488 63.09163574 55.14526367 62.3527832 C56.01755615 61.6429126 56.88984863 60.93304199 57.78857422 60.20166016 C71.09595978 50.06310724 87.87032205 48.51684052 103.99682617 50.64575195 C116.72164804 53.20595564 126.39490891 58.99633269 135.44604492 68.17700195 C136.03256836 68.75321289 136.6190918 69.32942383 137.22338867 69.9230957 C143.92757526 77.03669826 147.50707338 86.3731243 147.65136719 96.05151367 C147.67128723 97.24566895 147.69120728 98.43982422 147.71173096 99.67016602 C147.73683746 101.61874512 147.73683746 101.61874512 147.76245117 103.60668945 C147.78332729 104.9789278 147.8045547 106.35116084 147.82611084 107.72338867 C147.8939904 112.16617326 147.95164278 116.60906542 148.00854492 121.05200195 C148.02855115 122.57106584 148.04860124 124.09012916 148.06869507 125.60919189 C148.17856161 133.98722595 148.27817056 142.36534193 148.37126446 150.74357796 C148.42389536 155.41813459 148.48564605 160.09247898 148.5534668 164.7668457 C148.63189784 170.21536469 148.69130307 175.66368141 148.73214722 181.11260986 C148.74966011 183.06267515 148.77394634 185.01269208 148.8052063 186.96258545 C148.84643942 189.635871 148.86257801 192.30812974 148.87182617 194.98168945 C148.88928894 195.74940674 148.90675171 196.51712402 148.92474365 197.30810547 C148.90974719 200.98821567 148.55901182 203.001772 146.54443359 206.12670898 C141.39718921 211.15597697 132.72644933 209.48220038 125.90722656 209.52709961 C124.06334813 209.5436541 122.21953373 209.57093764 120.37597656 209.60913086 C117.71540087 209.6639586 115.05632855 209.68578174 112.39526367 209.70043945 C111.16376839 209.73444351 111.16376839 209.73444351 109.90739441 209.76913452 C109.13341812 209.76628448 108.35944183 209.76343445 107.56201172 209.76049805 C106.88631638 209.7685849 106.21062103 209.77667175 105.51445007 209.78500366 C102.05304868 208.76753474 100.60694345 207.02001623 98.44604492 204.17700195 C97.96868826 201.12666088 97.79328616 198.64081184 97.85009766 195.59814453 C97.84603912 194.74540955 97.84198059 193.89267456 97.83779907 193.01409912 C97.83228864 191.16658834 97.83827128 189.31901523 97.85445976 187.47156715 C97.8799112 184.54014428 97.87507006 181.61012573 97.86256409 178.67863464 C97.84181743 172.44876938 97.86147457 166.21933852 97.88354492 159.98950195 C97.90469568 152.78460689 97.90909618 145.58016631 97.88304329 138.37528038 C97.87970112 135.50024985 97.90084588 132.62610149 97.92344666 129.75117493 C97.98195961 115.329641 97.98195961 115.329641 91.48120117 102.73950195 C85.21418932 97.77553217 79.65093665 94.66560978 71.31323242 95.3527832 C64.40899222 96.54358421 58.4795679 99.52508486 53.95716858 104.96939087 C49.14955069 113.1656191 49.77628792 121.94536958 49.85445976 131.15006638 C49.88003726 134.18523839 49.87503239 137.21906327 49.86256409 140.25430298 C49.84190796 146.68702046 49.8614782 153.11931257 49.88354492 159.55200195 C49.90466112 167.03019391 49.9092613 174.50795104 49.88304329 181.98613358 C49.87968072 184.97555299 49.90090056 187.96414015 49.92344666 190.95346069 C49.92093631 192.78106875 49.91737721 194.60867577 49.91259766 196.4362793 C49.92548325 197.26645569 49.93836884 198.09663208 49.9516449 198.95196533 C49.92043196 202.52344877 49.75962862 204.73149445 47.67652893 207.69094849 C45.27501945 209.29094718 44.14079097 209.68176336 41.29174805 209.69458008 C40.48411011 209.70718872 39.67647217 209.71979736 38.84436035 209.73278809 C37.54891296 209.7206427 37.54891296 209.7206427 36.22729492 209.70825195 C35.33240356 209.71207886 34.43751221 209.71590576 33.51550293 209.71984863 C31.6259651 209.72256716 29.7363896 209.71521011 27.84692383 209.69848633 C24.95593302 209.67707519 22.06742725 209.69828929 19.17651367 209.72387695 C17.33926861 209.72123367 15.50202509 209.71610867 13.66479492 209.70825195 C12.36934753 209.72039734 12.36934753 209.72039734 11.04772949 209.73278809 C10.24009155 209.72017944 9.43245361 209.7075708 8.6003418 209.69458008 C7.89292847 209.69139771 7.18551514 209.68821533 6.45666504 209.68493652 C3.3830062 208.90845092 2.29155575 207.74882418 0.44604492 205.17700195 C0.02271982 202.33397348 -0.15147741 199.86852104 -0.15234375 197.02099609 C-0.16803972 196.17999044 -0.18373569 195.33898479 -0.1999073 194.47249413 C-0.24756812 191.61480631 -0.26603263 188.75767445 -0.28442383 185.8996582 C-0.3119747 183.82567025 -0.3409242 181.75170048 -0.37113953 179.67774963 C-0.46581522 172.51099895 -0.51261452 165.34423256 -0.55395508 158.17700195 C-0.56212204 156.83543629 -0.57032417 155.49387084 -0.57855988 154.1523056 C-0.67705646 137.86312765 -0.74043668 121.5737764 -0.80200195 105.28442383 C-0.80494774 104.52104666 -0.80789353 103.7576695 -0.81092858 102.9711597 C-0.84409635 94.31670858 -0.86965322 85.66232284 -0.87988281 77.0078125 C-0.8882588 69.99063441 -0.91065956 62.97365401 -0.94923848 55.95657498 C-0.96887319 52.28158791 -0.98144246 48.60689522 -0.97640419 44.93185234 C-0.9709069 40.88104431 -0.99610676 36.83098965 -1.02392578 32.78027344 C-1.01732437 31.58528229 -1.01072296 30.39029114 -1.00392151 29.15908813 C-1.07510488 22.87025593 -1.26969777 18.92840606 -5.55395508 14.17700195 C-6.29645508 13.51700195 -7.03895508 12.85700195 -7.80395508 12.17700195 C-9.55395508 10.17700195 -9.55395508 10.17700195 -9.99145508 7.11450195 C-9.55395508 4.17700195 -9.55395508 4.17700195 -8.17895508 2.36450195 C-5.32224095 0.27690317 -3.48993615 0.04123375 0 0 Z " fill="#F4CD1E" transform="translate(863.553955078125,74.822998046875)"/>
<path d="M0 0 C0.99 0.99 0.99 0.99 2 2 C2.19335938 1.37351563 2.38671875 0.74703125 2.5859375 0.1015625 C2.97652344 -1.12433594 2.97652344 -1.12433594 3.375 -2.375 C3.63023437 -3.18710938 3.88546875 -3.99921875 4.1484375 -4.8359375 C5 -7 5 -7 7 -9 C9.74966255 -9.23664974 12.39531201 -9.35232076 15.1484375 -9.37109375 C16.36184311 -9.38463646 16.36184311 -9.38463646 17.59976196 -9.39845276 C19.3128895 -9.41297254 21.02607272 -9.42184628 22.73925781 -9.42553711 C25.35837566 -9.43742455 27.97513047 -9.48658067 30.59375 -9.53710938 C32.25780099 -9.54657457 33.92186647 -9.55380915 35.5859375 -9.55859375 C36.75955338 -9.58789223 36.75955338 -9.58789223 37.95687866 -9.61778259 C41.36759453 -9.58954129 43.5041388 -9.39557374 46.20632935 -7.23989868 C49.00863218 -2.17811254 48.55627515 2.74408404 48.51757812 8.43774414 C48.5245874 9.70001328 48.53159668 10.96228241 48.53881836 12.26280212 C48.55702363 15.71736679 48.54999668 19.17145261 48.53730202 22.62602544 C48.52716185 26.2436521 48.5365703 29.86123827 48.54284668 33.47886658 C48.55011923 39.55247344 48.54054486 45.6258856 48.52148438 51.69946289 C48.49970638 58.72001835 48.50677495 65.74010931 48.52879 72.76065356 C48.54694364 78.79138064 48.54950286 84.82196794 48.53903532 90.85271353 C48.53280137 94.45336519 48.53196201 98.0537985 48.54518127 101.65443611 C48.55888503 105.66712069 48.53989099 109.67900458 48.51757812 113.69165039 C48.52567505 114.88501007 48.53377197 116.07836975 48.54211426 117.30789185 C48.53083496 118.40000473 48.51955566 119.49211761 48.50793457 120.61732483 C48.50642647 121.56580827 48.50491837 122.51429171 48.50336456 123.49151707 C47.84319431 126.78143047 46.63010875 127.97177994 44 130 C41.15896168 130.39792556 38.71317706 130.56171751 35.875 130.53125 C35.09108887 130.5350769 34.30717773 130.53890381 33.49951172 130.54284668 C31.84536451 130.54556353 30.19117417 130.5382181 28.53710938 130.52148438 C26.00813838 130.50006892 23.48200786 130.52129097 20.953125 130.546875 C19.34374374 130.54423168 17.73436425 130.53910661 16.125 130.53125 C15.3707373 130.53934692 14.61647461 130.54744385 13.83935547 130.55578613 C10.38317638 130.49419515 8.36297568 130.26531794 5.5390625 128.20117188 C3.45807888 125.22494277 3.27482641 122.57274334 3 119 C2.41734375 119.44730469 1.8346875 119.89460937 1.234375 120.35546875 C-13.55193377 131.25920902 -29.27705469 134.68787455 -47.44140625 132.60546875 C-63.07107066 129.84938458 -75.1664054 122.28222505 -86 111 C-86.67546875 110.32066406 -87.3509375 109.64132812 -88.046875 108.94140625 C-103.62156374 92.36745651 -105.79672538 72.77781984 -105.17480469 51.12451172 C-104.1368399 32.57161596 -93.56536231 17.17593389 -80.5625 4.65234375 C-56.38180119 -15.98874619 -26.45350519 -14.86825888 0 0 Z M-56.3125 41.8125 C-61.15246941 48.64384647 -63.02132767 56.71589776 -62 65 C-60.19092411 74.52779969 -55.56373497 82.68351841 -47.90234375 88.71875 C-39.88592889 94.11789594 -31.01444247 96.07588346 -21.4375 94.4375 C-12.51961702 92.02855487 -5.18481476 86.58417053 0 79 C2.41103022 74.60428027 4.49736688 70.02633117 5 65 C5.06316406 64.37996094 5.12632812 63.75992188 5.19140625 63.12109375 C5.70827183 53.8008403 2.82430167 45.6124667 -3.25 38.5625 C-10.50304075 31.15488625 -17.72532757 27.08778701 -28.25 26.625 C-40.47243601 26.91002251 -48.75914735 32.64850598 -56.3125 41.8125 Z " fill="#F4CD1E" transform="translate(788,155)"/>
<path d="M0 0 C0.99 0.99 0.99 0.99 2 2 C2.19335938 1.37351563 2.38671875 0.74703125 2.5859375 0.1015625 C2.97652344 -1.12433594 2.97652344 -1.12433594 3.375 -2.375 C3.63023438 -3.18710938 3.88546875 -3.99921875 4.1484375 -4.8359375 C5 -7 5 -7 7 -9 C9.74966255 -9.23664974 12.39531201 -9.35232076 15.1484375 -9.37109375 C16.36184311 -9.38463646 16.36184311 -9.38463646 17.59976196 -9.39845276 C19.3128895 -9.41297254 21.02607272 -9.42184628 22.73925781 -9.42553711 C25.35837566 -9.43742455 27.97513047 -9.48658067 30.59375 -9.53710938 C32.25780099 -9.54657457 33.92186647 -9.55380915 35.5859375 -9.55859375 C36.75955338 -9.58789223 36.75955338 -9.58789223 37.95687866 -9.61778259 C41.36759453 -9.58954129 43.5041388 -9.39557374 46.20632935 -7.23989868 C49.00863218 -2.17811254 48.55627515 2.74408404 48.51757812 8.43774414 C48.5245874 9.70001328 48.53159668 10.96228241 48.53881836 12.26280212 C48.55702363 15.71736679 48.54999668 19.17145261 48.53730202 22.62602544 C48.52716185 26.2436521 48.5365703 29.86123827 48.54284668 33.47886658 C48.55011923 39.55247344 48.54054486 45.6258856 48.52148438 51.69946289 C48.49970638 58.72001835 48.50677495 65.74010931 48.52879 72.76065356 C48.54694364 78.79138064 48.54950286 84.82196794 48.53903532 90.85271353 C48.53280137 94.45336519 48.53196201 98.0537985 48.54518127 101.65443611 C48.55888503 105.66712069 48.53989099 109.67900458 48.51757812 113.69165039 C48.52567505 114.88501007 48.53377197 116.07836975 48.54211426 117.30789185 C48.53083496 118.40000473 48.51955566 119.49211761 48.50793457 120.61732483 C48.50642647 121.56580827 48.50491837 122.51429171 48.50336456 123.49151707 C47.84319431 126.78143047 46.63010875 127.97177994 44 130 C41.15896168 130.39792556 38.71317706 130.56171751 35.875 130.53125 C35.09108887 130.5350769 34.30717773 130.53890381 33.49951172 130.54284668 C31.84536451 130.54556353 30.19117417 130.5382181 28.53710938 130.52148438 C26.00813838 130.50006892 23.48200786 130.52129097 20.953125 130.546875 C19.34374374 130.54423168 17.73436425 130.53910661 16.125 130.53125 C15.3707373 130.53934692 14.61647461 130.54744385 13.83935547 130.55578613 C10.38317638 130.49419515 8.36297568 130.26531794 5.5390625 128.20117188 C3.45807888 125.22494277 3.27482641 122.57274334 3 119 C2.41734375 119.44730469 1.8346875 119.89460937 1.234375 120.35546875 C-13.55193377 131.25920902 -29.27705469 134.68787455 -47.44140625 132.60546875 C-63.07107066 129.84938458 -75.1664054 122.28222505 -86 111 C-86.67546875 110.32066406 -87.3509375 109.64132812 -88.046875 108.94140625 C-103.62156374 92.36745651 -105.79672538 72.77781984 -105.17480469 51.12451172 C-104.1368399 32.57161596 -93.56536231 17.17593389 -80.5625 4.65234375 C-56.38180119 -15.98874619 -26.45350519 -14.86825888 0 0 Z M-56.3125 41.8125 C-61.15246941 48.64384647 -63.02132767 56.71589776 -62 65 C-60.19092411 74.52779969 -55.56373497 82.68351841 -47.90234375 88.71875 C-39.88592889 94.11789594 -31.01444247 96.07588346 -21.4375 94.4375 C-12.51961702 92.02855487 -5.18481476 86.58417053 0 79 C2.41103022 74.60428027 4.49736688 70.02633117 5 65 C5.06316406 64.37996094 5.12632813 63.75992188 5.19140625 63.12109375 C5.70827183 53.8008403 2.82430167 45.6124667 -3.25 38.5625 C-10.50304075 31.15488625 -17.72532757 27.08778701 -28.25 26.625 C-40.47243601 26.91002251 -48.75914735 32.64850598 -56.3125 41.8125 Z " fill="#F4CD1E" transform="translate(1134,154)"/>
<path d="M0 0 C21.747751 18.08497188 36.95452985 42.74734667 41 71 C42.61679837 104.7163599 36.81181566 134.18662965 14 160 C12.85403567 161.39572579 11.70818455 162.79154455 10.5625 164.1875 C9.716875 165.115625 8.87125 166.04375 8 167 C7.34 167 6.68 167 6 167 C5.67 167.99 5.34 168.98 5 170 C4.34 169.67 3.68 169.34 3 169 C3.58007812 168.21238281 4.16015625 167.42476562 4.7578125 166.61328125 C12.46753672 155.94667438 18.21930121 144.9832627 21 132 C21.27457031 130.72769531 21.27457031 130.72769531 21.5546875 129.4296875 C25.2115139 101.26570872 17.45744655 76.47184831 0.375 54.125 C-22.55569325 26.33423689 -51.93914916 13.17801774 -87 8 C-87.33257812 9.12921875 -87.66515625 10.2584375 -88.0078125 11.421875 C-90.35868319 18.46077136 -93.61430875 25.11268687 -96.74627686 31.82894897 C-98.68469809 35.98675927 -100.60682188 40.15210583 -102.53125 44.31640625 C-102.91727386 45.15065628 -103.30329773 45.98490631 -103.70101929 46.84443665 C-106.97914129 53.93528509 -110.19274815 61.05304659 -113.375 68.1875 C-118.30255171 79.22609716 -123.27069244 90.24569021 -128.25793457 101.25744629 C-134.11215883 114.18391867 -139.96601035 127.11058154 -145.77954102 140.05541992 C-146.6040565 141.89087758 -147.42994019 143.72572043 -148.25585938 145.56054688 C-148.74119141 146.64271484 -149.22652344 147.72488281 -149.7265625 148.83984375 C-150.14502441 149.77175537 -150.56348633 150.70366699 -150.99462891 151.66381836 C-152.07429494 154.0819846 -152.07429494 154.0819846 -153 157 C-157.10375003 155.63208332 -158.47983813 152.84812785 -160.75 149.375 C-161.19174561 148.70130371 -161.63349121 148.02760742 -162.08862305 147.33349609 C-177.52829859 123.23650384 -184.25836184 93.43400976 -178.375 65.1875 C-173.93342004 45.74681482 -165.56822782 27.76606495 -152 13 C-151.55285645 12.51047852 -151.10571289 12.02095703 -150.64501953 11.51660156 C-111.16938209 -31.22495714 -45.48046652 -35.97511503 0 0 Z " fill="#FDFDFD" transform="translate(272,152)"/>
<path d="M0 0 C17.63310025 2.06158137 32.88080753 13.29978151 44.0625 26.625 C51.89016098 36.84532659 58.0067753 47.7413874 62 60 C62.5878125 61.59908203 62.5878125 61.59908203 63.1875 63.23046875 C68.17346037 78.55190946 68.6688292 97.8117185 62.62109375 112.87109375 C59.94014911 118.04563992 56.71946307 122.52920539 53 127 C52.54109375 127.62003906 52.0821875 128.24007812 51.609375 128.87890625 C43.79074077 139.02900069 31.6504339 146.22291897 20 151 C19.31711914 151.2892334 18.63423828 151.5784668 17.93066406 151.87646484 C-1.04954831 159.60930193 -26.82535493 160.66489693 -46 153 C-47.63388672 152.38705078 -47.63388672 152.38705078 -49.30078125 151.76171875 C-54.80599822 149.59055259 -59.95837193 147.09372631 -65 144 C-61.44160252 135.2330997 -57.59819724 126.61907326 -53.64379883 118.02636719 C-52.23058277 114.95542465 -50.82199317 111.88236689 -49.41314697 108.80941772 C-48.68301565 107.2168914 -47.95266802 105.62446423 -47.22210693 104.03213501 C-43.62833723 96.19703424 -40.06232825 88.34943303 -36.5 80.5 C-32.66515656 72.0520028 -28.82401738 63.60700439 -24.9609375 55.171875 C-24.62322327 54.43443558 -24.28550903 53.69699615 -23.93756104 52.93721008 C-23.2555794 51.44809755 -22.57359291 49.95898724 -21.89160156 48.46987915 C-14.509786 32.35074353 -7.2206212 16.19198034 0 0 Z " fill="#FEFEFE" transform="translate(208,189)"/>
<path d="M0 0 C0.66 0.639375 1.32 1.27875 2 1.9375 C2.804375 1.298125 3.60875 0.65875 4.4375 0 C8.36729539 -2.60744718 12.3206347 -3.2869714 17 -3.0625 C19.92495349 -1.88007199 21.37801325 -1.00910932 23.10302734 1.61621094 C24.3164213 4.75637144 24.32857274 7.52802794 24.4140625 10.890625 C24.43342865 11.55084656 24.4527948 12.21106812 24.4727478 12.89129639 C24.53229349 14.98990153 24.57882722 17.08856228 24.625 19.1875 C24.66320294 20.6146066 24.70225602 22.04169072 24.7421875 23.46875 C24.8379733 26.95812691 24.92209642 30.44767286 25 33.9375 C26.32 34.2675 27.64 34.5975 29 34.9375 C29 35.5975 29 36.2575 29 36.9375 C22.07 36.9375 15.14 36.9375 8 36.9375 C8 36.2775 8 35.6175 8 34.9375 C8.99 34.2775 9.98 33.6175 11 32.9375 C11.41789089 30.02685621 11.41789089 30.02685621 11.29296875 26.6171875 C11.28330078 25.36035156 11.27363281 24.10351562 11.26367188 22.80859375 C11.23853516 21.48988281 11.21339844 20.17117188 11.1875 18.8125 C11.17245483 17.47267097 11.15876613 16.13282596 11.14648438 14.79296875 C11.11102872 11.50741158 11.06160849 8.22265418 11 4.9375 C8.02161866 3.56972061 8.02161866 3.56972061 5.34375 5.12109375 C1.59379307 9.62729199 2.35352657 14.33081262 2.5 20 C2.49742188 21.10150391 2.49484375 22.20300781 2.4921875 23.33789062 C2.206172 28.92109569 2.206172 28.92109569 4.52929688 33.65014648 C5.01462891 34.07497314 5.49996094 34.4997998 6 34.9375 C6 35.5975 6 36.2575 6 36.9375 C-0.6 36.9375 -7.2 36.9375 -14 36.9375 C-14 36.2775 -14 35.6175 -14 34.9375 C-13.01 34.2775 -12.02 33.6175 -11 32.9375 C-10.5818783 29.92897392 -10.5818783 29.92897392 -10.70703125 26.3984375 C-10.71669922 25.09648437 -10.72636719 23.79453125 -10.73632812 22.453125 C-10.76139612 21.07291077 -10.78679098 19.69270244 -10.8125 18.3125 C-10.82754483 16.92449337 -10.84123359 15.53647133 -10.85351562 14.1484375 C-10.8889743 10.74440491 -10.93839702 7.34114378 -11 3.9375 C-13.63173351 4.29313966 -15.56926623 4.64671647 -17.78759766 6.14428711 C-19.50329707 8.68190535 -19.3883211 10.5826649 -19.3984375 13.62890625 C-19.40230469 14.73814453 -19.40617187 15.84738281 -19.41015625 16.99023438 C-19.39855469 18.14845703 -19.38695312 19.30667969 -19.375 20.5 C-19.38660156 21.66208984 -19.39820313 22.82417969 -19.41015625 24.02148438 C-19.40435547 25.6834082 -19.40435547 25.6834082 -19.3984375 27.37890625 C-19.39505371 28.39670166 -19.39166992 29.41449707 -19.38818359 30.46313477 C-19.19603271 31.68794556 -19.19603271 31.68794556 -19 32.9375 C-18.01 33.5975 -17.02 34.2575 -16 34.9375 C-16 35.5975 -16 36.2575 -16 36.9375 C-22.6 36.9375 -29.2 36.9375 -36 36.9375 C-36 36.2775 -36 35.6175 -36 34.9375 C-35.01 34.2775 -34.02 33.6175 -33 32.9375 C-32.53214858 29.98076952 -32.53214858 29.98076952 -32.6015625 26.50390625 C-32.59769531 25.21548828 -32.59382813 23.92707031 -32.58984375 22.59960938 C-32.59612793 21.92696045 -32.60241211 21.25431152 -32.60888672 20.5612793 C-32.62491498 18.51087565 -32.60905877 16.46245084 -32.58984375 14.41210938 C-32.59371094 13.12240234 -32.59757812 11.83269531 -32.6015625 10.50390625 C-32.60494629 9.31740479 -32.60833008 8.13090332 -32.61181641 6.90844727 C-33.03681765 3.65571763 -33.55165163 2.95347702 -36 0.9375 C-36 0.2775 -36 -0.3825 -36 -1.0625 C-30.72 -1.0625 -25.44 -1.0625 -20 -1.0625 C-19.67 -0.4025 -19.34 0.2575 -19 0.9375 C-18.4225 0.463125 -17.845 -0.01125 -17.25 -0.5 C-11.74580084 -4.32236053 -5.39079662 -3.70617268 0 0 Z " fill="#F4CD1E" transform="translate(1163,324.0625)"/>
<path d="M0 0 C5.36900596 2.34246206 8.79687383 6.33090732 11.6484375 11.3828125 C13.4842 17.06919879 13.54806068 23.08840576 11.0859375 28.5703125 C8.13465589 33.79501951 4.07229708 37.27187686 -1.3515625 39.7578125 C-7.95571571 41.13367775 -13.41914788 40.53011457 -19.3515625 37.3828125 C-23.99018365 33.36267417 -27.96801852 29.27484079 -28.58984375 22.96484375 C-28.76250636 16.52180212 -28.25580342 11.65234013 -24.3515625 6.3828125 C-17.51152693 -0.78642264 -9.57883642 -2.51404677 0 0 Z " fill="#F4CD1E" transform="translate(746.3515625,89.6171875)"/>
<path d="M0 0 C4.99372298 2.84490885 8.5185413 7.03311046 10.6875 12.375 C11.59217287 19.57429148 11.55643719 25.84790094 7.11328125 31.79296875 C3.20615372 36.12827464 -0.69858747 38.96233871 -6.5703125 39.6328125 C-12.69624284 39.91381848 -17.31978806 39.02846517 -22.3125 35.375 C-27.48693258 30.62602076 -29.97079513 26.06541265 -30.625 19 C-30.13527058 13.31913868 -28.68662403 9.10247021 -25.125 4.625 C-17.49798111 -1.47661512 -9.37198191 -4.20062466 0 0 Z " fill="#F4CD1E" transform="translate(805.3125,89.625)"/>
<path d="M0 0 C4.0591112 3.29117124 6.33540987 7.73588174 7.3125 12.875 C7.90806778 20.89225859 7.91017528 28.0985992 2.94140625 34.6953125 C-0.58456882 38.33121005 -3.38051829 39.26797393 -8.4375 39.375 C-12.21383489 39.24841894 -13.45841357 39.02772428 -16.6875 36.875 C-16.6875 41.825 -16.6875 46.775 -16.6875 51.875 C-15.0375 52.535 -13.3875 53.195 -11.6875 53.875 C-11.6875 54.535 -11.6875 55.195 -11.6875 55.875 C-19.2775 55.875 -26.8675 55.875 -34.6875 55.875 C-34.6875 55.215 -34.6875 54.555 -34.6875 53.875 C-33.2025 53.38 -33.2025 53.38 -31.6875 52.875 C-30.51916212 50.53832423 -30.56073997 49.16720129 -30.55810547 46.56469727 C-30.55495331 45.67359756 -30.55180115 44.78249786 -30.54855347 43.86439514 C-30.55158981 42.41751564 -30.55158981 42.41751564 -30.5546875 40.94140625 C-30.55373077 39.95252914 -30.55277405 38.96365204 -30.55178833 37.94480896 C-30.55110701 35.85081926 -30.55295794 33.75682745 -30.55712891 31.6628418 C-30.56247216 28.45421607 -30.55718519 25.24573069 -30.55078125 22.03710938 C-30.55144215 20.00520802 -30.55272356 17.97330676 -30.5546875 15.94140625 C-30.55266327 14.97884415 -30.55063904 14.01628204 -30.54855347 13.02455139 C-30.55170563 12.13029953 -30.55485779 11.23604767 -30.55810547 10.31469727 C-30.55890106 9.52797134 -30.55969666 8.74124542 -30.56051636 7.93067932 C-30.6114445 5.67460738 -30.6114445 5.67460738 -31.6875 2.875 C-32.6775 2.545 -33.6675 2.215 -34.6875 1.875 C-34.6875 1.215 -34.6875 0.555 -34.6875 -0.125 C-29.0775 -0.125 -23.4675 -0.125 -17.6875 -0.125 C-17.3575 0.535 -17.0275 1.195 -16.6875 1.875 C-16.275 1.400625 -15.8625 0.92625 -15.4375 0.4375 C-10.94447678 -3.57412787 -5.19859656 -2.1761567 0 0 Z M-13.6875 3.875 C-17.02486267 6.99384488 -17.98760797 9.3793047 -18.21875 13.81640625 C-18.22932839 15.69010326 -18.21827576 17.56402589 -18.1875 19.4375 C-18.20296875 20.38302734 -18.2184375 21.32855469 -18.234375 22.30273438 C-18.25107474 27.75735293 -18.25107474 27.75735293 -15.81640625 32.4921875 C-13.73407012 34.02246376 -13.73407012 34.02246376 -11.125 34.4375 C-8.53670747 34.10075889 -8.53670747 34.10075889 -7.05859375 31.8984375 C-5.20991152 27.82185618 -5.24752028 24.35973117 -5.3125 19.9375 C-5.30089844 19.15181641 -5.28929687 18.36613281 -5.27734375 17.55664062 C-5.30208409 12.62918928 -5.89284334 9.10349476 -8.6875 4.875 C-11.27164426 3.90593173 -11.27164426 3.90593173 -13.6875 3.875 Z " fill="#F4CD1E" transform="translate(600.6875,325.125)"/>
<path d="M0 0 C9.9 0 19.8 0 30 0 C30 0.99 30 1.98 30 3 C27.69 3.33 25.38 3.66 23 4 C22.97527472 9.90820002 22.95712796 15.8163699 22.94506836 21.72460938 C22.94004069 23.73438034 22.93321767 25.74414764 22.92456055 27.75390625 C22.91242649 30.64323835 22.90675601 33.53252207 22.90234375 36.421875 C22.89718246 37.31992859 22.89202118 38.21798218 22.88670349 39.14324951 C22.88662796 39.98381897 22.88655243 40.82438843 22.88647461 41.69042969 C22.88314369 42.79629425 22.88314369 42.79629425 22.87974548 43.92449951 C23.00356502 46.06152957 23.41478631 47.94523924 24 50 C30.97131426 52.05185248 30.97131426 52.05185248 37.9375 50.875 C41.36249835 48.77806224 43.26060779 47.17432258 44.55981445 43.35375977 C45.18658028 40.00231809 45.16267134 36.6745663 45.16796875 33.27734375 C45.17129715 32.53545303 45.17462555 31.79356232 45.17805481 31.02919006 C45.18310559 29.46502297 45.18546371 27.90084516 45.18530273 26.33666992 C45.18749554 23.94236644 45.20568757 21.5485193 45.22460938 19.15429688 C45.22754241 17.63281407 45.22952781 16.11132909 45.23046875 14.58984375 C45.23765427 13.87416733 45.24483978 13.15849091 45.25224304 12.42112732 C45.23518951 8.72084533 45.10947211 7.16420817 43 4 C40.43717258 3.27034634 40.43717258 3.27034634 38 3 C38 2.01 38 1.02 38 0 C44.6 0 51.2 0 58 0 C58 0.99 58 1.98 58 3 C57.030625 3.28875 56.06125 3.5775 55.0625 3.875 C51.89335797 4.64214682 51.89335797 4.64214682 51 7 C50.89143674 9.67614977 50.83862276 12.33089625 50.82421875 15.0078125 C50.80100351 16.65105424 50.7768855 18.29428342 50.75195312 19.9375 C50.71697387 22.52449736 50.68757286 25.11103817 50.67407227 27.69824219 C50.65847983 30.19782986 50.61818416 32.69608286 50.57421875 35.1953125 C50.57612717 35.95707794 50.57803558 36.71884338 50.58000183 37.50369263 C50.45535407 43.04947147 49.09760578 47.36330029 46 52 C40.8240989 56.57405213 34.97496231 58 28.1875 58 C22.22108857 57.61088621 16.99119724 56.97489644 12.56640625 52.57421875 C9.25285134 48.79132178 7.90145579 45.85330445 7.79467773 40.89575195 C7.77473251 40.07512772 7.75478729 39.25450348 7.73423767 38.40901184 C7.71752518 37.52767075 7.70081268 36.64632965 7.68359375 35.73828125 C7.6524221 34.37959175 7.6524221 34.37959175 7.62062073 32.99345398 C7.55523442 30.09987984 7.49629096 27.20621493 7.4375 24.3125 C7.3943044 22.35090207 7.35068977 20.38931332 7.30664062 18.42773438 C7.19956418 13.61858261 7.09826586 8.80933954 7 4 C4.69 3.67 2.38 3.34 0 3 C0 2.01 0 1.02 0 0 Z " fill="#F4CD1E" transform="translate(706,307)"/>
<path d="M0 0 C0.33 -0.99 0.66 -1.98 1 -3 C1.66 -3 2.32 -3 3 -3 C3.82351864 3.38226945 4.12086218 9.56744599 4 16 C3.01 16 2.02 16 1 16 C0.65388672 15.09507812 0.65388672 15.09507812 0.30078125 14.171875 C-2.43040157 7.43870133 -2.43040157 7.43870133 -8 3 C-12.5467964 1.98145242 -16.5035271 1.66431304 -21 3 C-21.95367452 5.70590396 -21.95367452 5.70590396 -22 9 C-17.91027524 15.11829341 -12.84855302 17.44233296 -6.32617188 20.47851562 C-0.44232116 23.37075513 4.02012968 27.04025935 7 33 C7.5238576 38.25575165 7.66505372 42.64526095 5.3125 47.4375 C0.79867307 52.43930822 -3.17306629 55.22644456 -10 56 C-14.65341654 55.92678191 -18.92432474 55.05422718 -23.375 53.75 C-24.57125 53.5025 -25.7675 53.255 -27 53 C-28.92005135 54.25117962 -28.92005135 54.25117962 -30 56 C-30.66 56 -31.32 56 -32 56 C-32 48.74 -32 41.48 -32 34 C-31.34 34 -30.68 34 -30 34 C-29.6596875 34.80824219 -29.319375 35.61648438 -28.96875 36.44921875 C-26.23411733 42.47850194 -24.04935415 47.19177702 -18.01953125 50.3046875 C-13.48808244 51.86483816 -9.49481434 51.19210293 -5 50 C-4.80426392 48.56359829 -4.61872184 47.12580496 -4.4375 45.6875 C-4.33308594 44.88699219 -4.22867187 44.08648437 -4.12109375 43.26171875 C-3.85244822 40.83182884 -3.85244822 40.83182884 -5 38 C-6.63880239 37.26750499 -8.31485866 36.61848273 -10 36 C-12.71169642 34.66443157 -15.35362833 33.20989877 -18 31.75 C-18.69867188 31.38003906 -19.39734375 31.01007813 -20.1171875 30.62890625 C-25.6788328 27.55426083 -29.91649335 24.25051996 -32 18 C-32.51853818 13.0611364 -32.55199525 9.14645166 -30.375 4.625 C-21.27656855 -5.43116107 -11.73800702 -3.62497276 0 0 Z " fill="#F4CD1E" transform="translate(508,310)"/>
<path d="M0 0 C2.47915567 0.84472528 2.47915567 0.84472528 6.2265625 0.65625 C6.5565625 -0.33375 6.8865625 -1.32375 7.2265625 -2.34375 C8.2165625 -2.34375 9.2065625 -2.34375 10.2265625 -2.34375 C10.2265625 4.25625 10.2265625 10.85625 10.2265625 17.65625 C9.2365625 17.65625 8.2465625 17.65625 7.2265625 17.65625 C7.01902344 17.06457031 6.81148437 16.47289062 6.59765625 15.86328125 C4.69771861 10.99021945 2.88022487 7.27964389 -1.6484375 4.46875 C-5.97814492 2.81327363 -10.24694666 2.92462686 -14.7734375 3.65625 C-19.68074219 5.97606676 -22.2154941 8.90578368 -24.7734375 13.65625 C-28.62838251 25.22108504 -26.88504089 36.69195574 -21.7734375 47.65625 C-19.37814081 48.98106546 -19.37814081 48.98106546 -16.7734375 49.65625 C-15.2884375 50.15125 -15.2884375 50.15125 -13.7734375 50.65625 C-5.32439998 51.54562237 0.64266279 48.30833579 7.3515625 43.34375 C7.9703125 42.786875 8.5890625 42.23 9.2265625 41.65625 C9.7265625 44.28125 9.7265625 44.28125 9.2265625 47.65625 C3.85042335 53.2285986 -2.57868243 55.92433495 -10.1796875 56.62109375 C-19.05493492 56.74139078 -28.01949417 54.96930342 -34.7109375 48.8984375 C-41.62347065 41.55387103 -43.39527767 34.92517693 -43.1171875 24.90234375 C-42.2105982 16.34125616 -38.33095384 9.23447751 -31.7734375 3.65625 C-21.29664048 -2.83322982 -11.6835855 -4.11018643 0 0 Z " fill="#F4CD1E" transform="translate(960.7734375,307.34375)"/>
<path d="M0 0 C1.60294922 0.01353516 1.60294922 0.01353516 3.23828125 0.02734375 C4.04652344 0.03894531 4.85476563 0.05054688 5.6875 0.0625 C5.70208252 1.11228027 5.71666504 2.16206055 5.73168945 3.24365234 C5.78957993 7.13153474 5.86681206 11.01883226 5.94995117 14.90625 C5.98324435 16.59007285 6.01126256 18.27400848 6.03393555 19.95800781 C6.06740205 22.37614086 6.11971036 24.79323624 6.17578125 27.2109375 C6.18217117 27.9661972 6.1885611 28.72145691 6.19514465 29.49960327 C6.22730318 31.84895901 6.22730318 31.84895901 6.6875 35.0625 C7.6775 35.7225 8.6675 36.3825 9.6875 37.0625 C9.6875 37.7225 9.6875 38.3825 9.6875 39.0625 C4.4075 39.0625 -0.8725 39.0625 -6.3125 39.0625 C-6.6425 38.0725 -6.9725 37.0825 -7.3125 36.0625 C-7.93125 36.7225 -8.55 37.3825 -9.1875 38.0625 C-13.53684649 40.84608175 -17.27370655 41.03054406 -22.3125 40.0625 C-25.92451277 37.40877633 -27.55800956 35.41624955 -28.3125 31.0625 C-28.39370233 28.9648604 -28.42005808 26.86481238 -28.41015625 24.765625 C-28.40532227 22.95771484 -28.40532227 22.95771484 -28.40039062 21.11328125 C-28.39201172 19.85902344 -28.38363281 18.60476563 -28.375 17.3125 C-28.37048828 16.04277344 -28.36597656 14.77304687 -28.36132812 13.46484375 C-28.34954556 10.33068164 -28.33309416 7.19661459 -28.3125 4.0625 C-29.6325 3.7325 -30.9525 3.4025 -32.3125 3.0625 C-32.3125 2.4025 -32.3125 1.7425 -32.3125 1.0625 C-27.0325 1.0625 -21.7525 1.0625 -16.3125 1.0625 C-16.25191406 3.12113281 -16.19132813 5.17976563 -16.12890625 7.30078125 C-16.06632342 9.29647829 -16.00370874 11.29217447 -15.94018555 13.2878418 C-15.89689782 14.67385983 -15.85521836 16.05992906 -15.81518555 17.44604492 C-15.75733416 19.43941798 -15.69320224 21.43260565 -15.62890625 23.42578125 C-15.59224854 24.62501221 -15.55559082 25.82424316 -15.51782227 27.05981445 C-15.43516975 30.11244349 -15.43516975 30.11244349 -14.3125 33.0625 C-11.87532742 32.79215366 -11.87532742 32.79215366 -9.3125 32.0625 C-7.13277886 28.79291829 -7.06449807 27.84691762 -7.08203125 24.0625 C-7.08493164 22.6084375 -7.08493164 22.6084375 -7.08789062 21.125 C-7.10013672 20.114375 -7.11238281 19.10375 -7.125 18.0625 C-7.12564453 17.051875 -7.12628906 16.04125 -7.12695312 15 C-7.10776508 9.4415195 -7.10776508 9.4415195 -8.3125 4.0625 C-9.3025 3.7325 -10.2925 3.4025 -11.3125 3.0625 C-11.3125 2.4025 -11.3125 1.7425 -11.3125 1.0625 C-7.47525828 0.15836327 -3.93747726 -0.04326898 0 0 Z " fill="#F4CD1E" transform="translate(553.3125,323.9375)"/>
<path d="M0 0 C1.60294922 0.01353516 1.60294922 0.01353516 3.23828125 0.02734375 C4.04652344 0.03894531 4.85476563 0.05054688 5.6875 0.0625 C5.70208252 1.11228027 5.71666504 2.16206055 5.73168945 3.24365234 C5.78957993 7.13153474 5.86681206 11.01883226 5.94995117 14.90625 C5.98324435 16.59007285 6.01126256 18.27400848 6.03393555 19.95800781 C6.06740205 22.37614086 6.11971036 24.79323624 6.17578125 27.2109375 C6.18217117 27.9661972 6.1885611 28.72145691 6.19514465 29.49960327 C6.22730318 31.84895901 6.22730318 31.84895901 6.6875 35.0625 C7.6775 35.7225 8.6675 36.3825 9.6875 37.0625 C9.6875 37.7225 9.6875 38.3825 9.6875 39.0625 C4.4075 39.0625 -0.8725 39.0625 -6.3125 39.0625 C-6.6425 38.0725 -6.9725 37.0825 -7.3125 36.0625 C-7.93125 36.7225 -8.55 37.3825 -9.1875 38.0625 C-13.53684649 40.84608175 -17.27370655 41.03054406 -22.3125 40.0625 C-25.92451277 37.40877633 -27.55800956 35.41624955 -28.3125 31.0625 C-28.39370233 28.9648604 -28.42005808 26.86481238 -28.41015625 24.765625 C-28.40532227 22.95771484 -28.40532227 22.95771484 -28.40039062 21.11328125 C-28.39201172 19.85902344 -28.38363281 18.60476563 -28.375 17.3125 C-28.37048828 16.04277344 -28.36597656 14.77304687 -28.36132812 13.46484375 C-28.34954556 10.33068164 -28.33309416 7.19661459 -28.3125 4.0625 C-29.6325 3.7325 -30.9525 3.4025 -32.3125 3.0625 C-32.3125 2.4025 -32.3125 1.7425 -32.3125 1.0625 C-27.0325 1.0625 -21.7525 1.0625 -16.3125 1.0625 C-16.25191406 3.12113281 -16.19132813 5.17976563 -16.12890625 7.30078125 C-16.06632342 9.29647829 -16.00370874 11.29217447 -15.94018555 13.2878418 C-15.89689782 14.67385983 -15.85521836 16.05992906 -15.81518555 17.44604492 C-15.75733416 19.43941798 -15.69320224 21.43260565 -15.62890625 23.42578125 C-15.59224854 24.62501221 -15.55559082 25.82424316 -15.51782227 27.05981445 C-15.43516975 30.11244349 -15.43516975 30.11244349 -14.3125 33.0625 C-11.87532742 32.79215366 -11.87532742 32.79215366 -9.3125 32.0625 C-7.13277886 28.79291829 -7.06449807 27.84691762 -7.08203125 24.0625 C-7.08493164 22.6084375 -7.08493164 22.6084375 -7.08789062 21.125 C-7.10013672 20.114375 -7.11238281 19.10375 -7.125 18.0625 C-7.12564453 17.051875 -7.12628906 16.04125 -7.12695312 15 C-7.10776508 9.4415195 -7.10776508 9.4415195 -8.3125 4.0625 C-9.3025 3.7325 -10.2925 3.4025 -11.3125 3.0625 C-11.3125 2.4025 -11.3125 1.7425 -11.3125 1.0625 C-7.47525828 0.15836327 -3.93747726 -0.04326898 0 0 Z " fill="#F4CD1E" transform="translate(1009.3125,321.9375)"/>
<path d="M0 0 C3.0578128 3.25509105 3.08923355 5.27749187 3.21875 9.65625 C3.27482422 11.32494141 3.27482422 11.32494141 3.33203125 13.02734375 C3.40234375 15.38411458 3.47265625 17.74088542 3.54296875 20.09765625 C3.59904297 21.76634766 3.59904297 21.76634766 3.65625 23.46875 C3.68654297 24.49291016 3.71683594 25.51707031 3.74804688 26.57226562 C3.77962357 29.06180916 3.77962357 29.06180916 4.9375 31.0625 C6.2575 31.0625 7.5775 31.0625 8.9375 31.0625 C7.07279649 34.60543666 5.84385582 36.83478817 1.9375 38.0625 C-1 38.5 -1 38.5 -4.0625 38.0625 C-6.9375 35.5625 -6.9375 35.5625 -9.0625 33.0625 C-9.866875 33.701875 -10.67125 34.34125 -11.5 35 C-15.42600089 37.61111698 -19.3879057 38.26690241 -24.0625 38.0625 C-26.5625 37.0625 -26.5625 37.0625 -28.0625 35.0625 C-29.12065319 31.32369208 -29.25518534 28.83324135 -28.3125 25.0625 C-23.62201961 18.80852615 -16.43272732 15.28336614 -9.0625 13.0625 C-9.5575 8.1125 -9.5575 8.1125 -10.0625 3.0625 C-12.82514289 2.46517181 -15.22282769 2.0625 -18.0625 2.0625 C-17.7325 2.784375 -17.4025 3.50625 -17.0625 4.25 C-16.04166828 7.12108922 -15.73653105 9.04728721 -16.0625 12.0625 C-18.0625 14.0625 -18.0625 14.0625 -21.5 14.375 C-25.0625 14.0625 -25.0625 14.0625 -27.0625 13 C-28.76248773 9.70627377 -28.08210568 7.54115468 -27.0625 4.0625 C-20.24511967 -3.41999061 -8.73906736 -5.52879772 0 0 Z M-15.0625 21.0625 C-16.60576281 24.02245431 -16.60576281 24.02245431 -17.0625 27.0625 C-16.0725 28.5475 -16.0725 28.5475 -15.0625 30.0625 C-13.0825 29.7325 -11.1025 29.4025 -9.0625 29.0625 C-9.0625 25.1025 -9.0625 21.1425 -9.0625 17.0625 C-11.49954329 17.0625 -13.42676317 19.54645123 -15.0625 21.0625 Z " fill="#F4CD1E" transform="translate(885.0625,324.9375)"/>
<path d="M0 0 C5.26683897 4.40944658 8.24374915 8.6178639 8.91015625 15.57421875 C9.13997365 22.09903449 8.42087582 27.82207786 4.2578125 33.04296875 C0.9275538 36.53062774 -1.41242027 38.09525385 -6.23828125 38.48828125 C-15.35224603 38.68801058 -15.35224603 38.68801058 -19.875 36.625 C-25.5424682 31.10285149 -27.46506798 26.34866401 -27.625 18.5625 C-27.56210655 10.94453051 -26.32711216 6.26461216 -20.9375 0.875 C-13.9286864 -3.46378937 -7.29533573 -3.85413963 0 0 Z M-13 2.3125 C-16.08061434 6.86007355 -15.4725433 13.43438265 -15.5 18.75 C-15.51417969 19.9978125 -15.52835938 21.245625 -15.54296875 22.53125 C-15.24467879 27.3443354 -14.81477207 31.74772793 -11.3125 35.25 C-8.76536596 35.24077298 -8.76536596 35.24077298 -6.3125 34.25 C-3.14853791 29.48470229 -3.98372825 23.80909584 -4 18.3125 C-3.98388672 17.22775391 -3.96777344 16.14300781 -3.95117188 15.02539062 C-3.95052734 13.97673828 -3.94988281 12.92808594 -3.94921875 11.84765625 C-3.94623779 10.89383057 -3.94325684 9.94000488 -3.94018555 8.95727539 C-4.38866431 5.69617309 -5.2529489 3.81374086 -7.3125 1.25 C-11.08070011 0.89479115 -11.08070011 0.89479115 -13 2.3125 Z " fill="#F4CD1E" transform="translate(1112.3125,323.75)"/>
<path d="M0 0 C5.15871884 5.51862946 5.6875 9.30212842 5.6875 16.875 C-0.9125 16.875 -7.5125 16.875 -14.3125 16.875 C-13.879375 18.463125 -13.44625 20.05125 -13 21.6875 C-12.75636719 22.58082031 -12.51273438 23.47414063 -12.26171875 24.39453125 C-11.27258854 26.97929538 -10.50864394 28.21985738 -8.3125 29.875 C-4.92962204 30.38562309 -2.49916381 30.62119908 0.4765625 28.75 C1.94138911 27.5281541 3.32213315 26.20706522 4.6875 24.875 C5.0175 25.865 5.3475 26.855 5.6875 27.875 C3.16452769 32.61818794 0.57275815 35.60684443 -4.3125 37.875 C-9.96451494 38.63584816 -14.67984723 38.64836184 -19.875 36.1875 C-24.43852102 31.8580057 -26.08750748 27.86998234 -26.55078125 21.703125 C-26.82826444 8.32551451 -26.82826444 8.32551451 -22.3125 2.875 C-15.60828891 -3.31589563 -8.01722881 -5.14312791 0 0 Z M-13 2.375 C-14.83841496 5.87674278 -14.98462164 8.9404597 -15.3125 12.875 C-11.6825 12.875 -8.0525 12.875 -4.3125 12.875 C-4.43625 11.451875 -4.56 10.02875 -4.6875 8.5625 C-4.75710938 7.76199219 -4.82671875 6.96148437 -4.8984375 6.13671875 C-5.20814426 3.60275559 -5.20814426 3.60275559 -7.3125 0.875 C-11.19052695 0.43209077 -11.19052695 0.43209077 -13 2.375 Z " fill="#F4CD1E" transform="translate(640.3125,326.125)"/>
<path d="M0 0 C5.61 0 11.22 0 17 0 C17.33 17.16 17.66 34.32 18 52 C19.32 52.66 20.64 53.32 22 54 C22 54.66 22 55.32 22 56 C14.74 56 7.48 56 0 56 C0 55.34 0 54.68 0 54 C1.32 53.34 2.64 52.68 4 52 C4.02529705 45.48552273 4.04284444 38.97105807 4.05493164 32.45654297 C4.05996909 30.23909024 4.06679922 28.02164084 4.07543945 25.80419922 C4.08753072 22.62206195 4.0932341 19.43996849 4.09765625 16.2578125 C4.10281754 15.26194122 4.10797882 14.26606995 4.11329651 13.24002075 C4.11337204 12.31921722 4.11344757 11.3984137 4.11352539 10.44970703 C4.11685631 9.23059128 4.11685631 9.23059128 4.12025452 7.98684692 C4.12584658 5.92472641 4.12584658 5.92472641 3 4 C2.01 3.67 1.02 3.34 0 3 C0 2.01 0 1.02 0 0 Z " fill="#F4CD1E" transform="translate(766,306)"/>
<path d="M0 0 C2.61918101 0.36336022 2.61918101 0.36336022 5.48828125 -0.80859375 C5.98328125 6.12140625 5.98328125 6.12140625 6.48828125 13.19140625 C5.49828125 13.19140625 4.50828125 13.19140625 3.48828125 13.19140625 C2.91078125 12.07765625 2.33328125 10.96390625 1.73828125 9.81640625 C0.42980802 7.54039999 -0.38906183 6.28339894 -2.51171875 4.69140625 C-4.86785921 4.10237113 -6.24503078 4.38187483 -8.51171875 5.19140625 C-8.48831152 7.03452218 -8.48831152 7.03452218 -7.51171875 9.19140625 C-4.87161258 11.39513123 -2.17097025 13.35055969 0.65234375 15.3046875 C4.56668887 18.13465323 6.77050135 20.51730225 8.48828125 25.19140625 C8.88962268 30.01622822 7.49480467 34.4054138 4.48828125 38.19140625 C1.26503103 40.24712361 -1.29188662 40.43551258 -5.07421875 40.37890625 C-6.02425781 40.37246094 -6.97429687 40.36601562 -7.953125 40.359375 C-10.51171875 40.19140625 -10.51171875 40.19140625 -13.51171875 39.19140625 C-15.49171875 39.68640625 -15.49171875 39.68640625 -17.51171875 40.19140625 C-17.84171875 35.57140625 -18.17171875 30.95140625 -18.51171875 26.19140625 C-17.52171875 26.19140625 -16.53171875 26.19140625 -15.51171875 26.19140625 C-14.3359375 27.87109375 -14.3359375 27.87109375 -13.19921875 30.06640625 C-11.34271434 33.24496684 -10.75915069 34.07011608 -7.32421875 35.75390625 C-4.56777447 36.46084196 -4.56777447 36.46084196 -2.51171875 35.19140625 C-2.02960711 32.88279623 -2.02960711 32.88279623 -2.51171875 30.19140625 C-5.01579241 27.78102577 -5.01579241 27.78102577 -8.26171875 25.69140625 C-17.81475847 19.1381133 -17.81475847 19.1381133 -19.04296875 13.9453125 C-18.96686072 8.60823682 -18.28982994 5.26778938 -14.51171875 1.19140625 C-9.72675301 -1.49284282 -5.24064092 -0.68860427 0 0 Z " fill="#F4CD1E" transform="translate(1043.51171875,321.80859375)"/>
<path d="M0 0 C0.99 0 1.98 0 3 0 C3 4.62 3 9.24 3 14 C5.97 14 8.94 14 12 14 C12 15.32 12 16.64 12 18 C9.03 18 6.06 18 3 18 C3.495 32.355 3.495 32.355 4 47 C8.80304035 45.45957252 8.80304035 45.45957252 11 43 C11.8125 44.6875 11.8125 44.6875 12 47 C9.97691465 49.89975567 8.27986071 51.61881405 4.8359375 52.64453125 C1.0638372 53.21854651 -1.36381322 53.25718189 -4.9375 51.8125 C-8.02042189 49.10326561 -8.91804087 47.09173091 -9.22705078 42.97558594 C-9.21134033 41.24743652 -9.21134033 41.24743652 -9.1953125 39.484375 C-9.18564453 37.60878906 -9.18564453 37.60878906 -9.17578125 35.6953125 C-9.15902344 34.39335937 -9.14226563 33.09140625 -9.125 31.75 C-9.11597656 30.43257813 -9.10695313 29.11515625 -9.09765625 27.7578125 C-9.07408533 24.50502538 -9.04118022 21.25260411 -9 18 C-10.65 18 -12.3 18 -14 18 C-12.66613539 14.92488356 -11.35187553 13.25862013 -8.6875 11.25 C-5.21796081 8.43686011 -3.22636702 5.46084504 -1.140625 1.5390625 C-0.76421875 1.03117187 -0.3878125 0.52328125 0 0 Z " fill="#F4CD1E" transform="translate(803,310)"/>
<path d="M0 0 C0.99 0 1.98 0 3 0 C3 4.62 3 9.24 3 14 C5.97 14 8.94 14 12 14 C12 15.32 12 16.64 12 18 C9.03 18 6.06 18 3 18 C3.495 32.355 3.495 32.355 4 47 C8.80304035 45.45957252 8.80304035 45.45957252 11 43 C11.8125 44.6875 11.8125 44.6875 12 47 C9.97691465 49.89975567 8.27986071 51.61881405 4.8359375 52.64453125 C1.0638372 53.21854651 -1.36381322 53.25718189 -4.9375 51.8125 C-8.02042189 49.10326561 -8.91804087 47.09173091 -9.22705078 42.97558594 C-9.21134033 41.24743652 -9.21134033 41.24743652 -9.1953125 39.484375 C-9.18564453 37.60878906 -9.18564453 37.60878906 -9.17578125 35.6953125 C-9.15902344 34.39335937 -9.14226562 33.09140625 -9.125 31.75 C-9.11597656 30.43257813 -9.10695313 29.11515625 -9.09765625 27.7578125 C-9.07408533 24.50502538 -9.04118022 21.25260411 -9 18 C-10.65 18 -12.3 18 -14 18 C-12.66613539 14.92488356 -11.35187553 13.25862013 -8.6875 11.25 C-5.21796081 8.43686011 -3.22636702 5.46084504 -1.140625 1.5390625 C-0.76421875 1.03117187 -0.3878125 0.52328125 0 0 Z " fill="#F4CD1E" transform="translate(1069,309)"/>
<path d="M0 0 C2 2 2 2 2.25 4.9375 C2 8 2 8 0 11 C-4.20417542 11.4671306 -7.19788277 10.78923164 -11 9 C-14.47159188 14.48529741 -14.36163875 19.11493536 -14.1875 25.375 C-14.17396484 26.30183594 -14.16042969 27.22867187 -14.14648438 28.18359375 C-14.11133881 30.45633998 -14.06214132 32.72785847 -14 35 C-12.68 35.66 -11.36 36.32 -10 37 C-10 37.66 -10 38.32 -10 39 C-16.93 39 -23.86 39 -31 39 C-31 38.34 -31 37.68 -31 37 C-30.01 36.34 -29.02 35.68 -28 35 C-27.53187025 31.92883403 -27.53187025 31.92883403 -27.6015625 28.3125 C-27.59869232 27.65419189 -27.59582214 26.99588379 -27.59286499 26.31762695 C-27.59082324 24.92560974 -27.59636098 23.53356391 -27.60888672 22.14160156 C-27.62494122 20.00781253 -27.60904437 17.87591745 -27.58984375 15.7421875 C-27.59182617 14.39062081 -27.59566981 13.0390553 -27.6015625 11.6875 C-27.60494629 10.45386719 -27.60833008 9.22023438 -27.61181641 7.94921875 C-27.73991699 6.97597656 -27.86801758 6.00273437 -28 5 C-28.99 4.34 -29.98 3.68 -31 3 C-31 2.34 -31 1.68 -31 1 C-25.72 1 -20.44 1 -15 1 C-14.67 2.65 -14.34 4.3 -14 6 C-13.443125 5.21625 -12.88625 4.4325 -12.3125 3.625 C-8.59725883 -0.59230079 -5.40375282 -1.75256848 0 0 Z " fill="#F4CD1E" transform="translate(682,324)"/>
<path d="M0 0 C2 2 2 2 2.25 4.9375 C2 8 2 8 0 11 C-4.20417542 11.4671306 -7.19788277 10.78923164 -11 9 C-14.47159188 14.48529741 -14.36163875 19.11493536 -14.1875 25.375 C-14.17396484 26.30183594 -14.16042969 27.22867187 -14.14648438 28.18359375 C-14.11133881 30.45633998 -14.06214132 32.72785847 -14 35 C-12.68 35.66 -11.36 36.32 -10 37 C-10 37.66 -10 38.32 -10 39 C-16.93 39 -23.86 39 -31 39 C-31 38.34 -31 37.68 -31 37 C-30.01 36.34 -29.02 35.68 -28 35 C-27.53187025 31.92883403 -27.53187025 31.92883403 -27.6015625 28.3125 C-27.59869232 27.65419189 -27.59582214 26.99588379 -27.59286499 26.31762695 C-27.59082324 24.92560974 -27.59636098 23.53356391 -27.60888672 22.14160156 C-27.62494122 20.00781253 -27.60904437 17.87591745 -27.58984375 15.7421875 C-27.59182617 14.39062081 -27.59566981 13.0390553 -27.6015625 11.6875 C-27.60494629 10.45386719 -27.60833008 9.22023438 -27.61181641 7.94921875 C-27.73991699 6.97597656 -27.86801758 6.00273437 -28 5 C-28.99 4.34 -29.98 3.68 -31 3 C-31 2.34 -31 1.68 -31 1 C-25.72 1 -20.44 1 -15 1 C-14.67 2.65 -14.34 4.3 -14 6 C-13.443125 5.21625 -12.88625 4.4325 -12.3125 3.625 C-8.59725883 -0.59230079 -5.40375282 -1.75256848 0 0 Z " fill="#F4CD1E" transform="translate(850,323)"/>
</svg>
